<?xml version="1.0" encoding="UTF-8"?>
<svg version="1.1" xmlns="http://www.w3.org/2000/svg" width="512" height="512">
<path d="M0 0 C0.99 1.485 0.99 1.485 2 3 C5.42684685 7.65153576 5.42684685 7.65153576 10 11 C10 12.32 10 13.64 10 15 C1.98067499 18.27055421 -5.48232534 18.52264883 -14 17 C-14.99 16.01 -14.99 16.01 -16 15 C-20.29815688 14.30121989 -24.65308184 14.19137376 -29 14 C-30.84464844 13.91878906 -30.84464844 13.91878906 -32.7265625 13.8359375 C-39.24622241 13.68236949 -44.3561318 13.56460197 -50 17 C-51.32 18.32 -52.64 19.64 -54 21 C-44.43 21.33 -34.86 21.66 -25 22 C-23.87663134 27.6168433 -23.87663134 27.6168433 -25.90625 30.84765625 C-26.52693359 31.87922852 -26.52693359 31.87922852 -27.16015625 32.93164062 C-27.60230469 33.63482422 -28.04445313 34.33800781 -28.5 35.0625 C-29.37583886 36.46307613 -30.24093639 37.87044209 -31.09375 39.28515625 C-31.48240234 39.90269775 -31.87105469 40.52023926 -32.27148438 41.15649414 C-33.52936889 44.33956584 -32.16748927 46.60919171 -30.875 49.625 C-30.58625 50.40875 -30.2975 51.1925 -30 52 C-30.495 52.99 -30.495 52.99 -31 54 C-31.90621094 53.96519531 -32.81242187 53.93039063 -33.74609375 53.89453125 C-35.57333984 53.85392578 -35.57333984 53.85392578 -37.4375 53.8125 C-38.63246094 53.77769531 -39.82742187 53.74289063 -41.05859375 53.70703125 C-45.73856318 54.05489816 -49.64175997 55.337308 -54 57 C-52.77925781 56.94199219 -51.55851562 56.88398438 -50.30078125 56.82421875 C-40.17547933 56.49031566 -30.90058294 56.42797114 -22 62 C-20.03118869 64.84321175 -19.9678489 65.7213571 -20.375 69.25 C-20.58125 70.1575 -20.7875 71.065 -21 72 C-21.66 72 -22.32 72 -23 72 C-23.99 74.31 -24.98 76.62 -26 79 C-28.71498543 78.38268543 -31.13758862 77.54406531 -33.6875 76.4375 C-38.04868889 74.768302 -42.36752309 74.25995701 -47 75 C-47.66 75.66 -48.32 76.32 -49 77 C-48.54316138 82.28401906 -48.54316138 82.28401906 -45.45605469 86.30566406 C-43.4678045 87.38440659 -41.46996172 88.27217955 -39.375 89.125 C-37.91649765 89.78032086 -36.46072068 90.4417431 -35.0078125 91.109375 C-34.31204102 91.42583984 -33.61626953 91.74230469 -32.89941406 92.06835938 C-29.80723443 93.58503771 -27.20802481 95.57366149 -24.578125 97.7734375 C-22.99933393 99.09316712 -22.99933393 99.09316712 -20.921875 99.9765625 C-19 101 -19 101 -17 104 C-16.64093648 107.99838532 -16.84901572 111.99161089 -17 116 C-17.04447266 117.42119141 -17.04447266 117.42119141 -17.08984375 118.87109375 C-17.14269531 119.73863281 -17.19554687 120.60617187 -17.25 121.5 C-17.29640625 122.2734375 -17.3428125 123.046875 -17.390625 123.84375 C-18.69452307 128.45754316 -22.89824938 130.77028546 -26.8125 133.125 C-27.62332031 133.62257813 -28.43414062 134.12015625 -29.26953125 134.6328125 C-38.55930906 139.28434645 -50.46573947 139.56333049 -60.4375 136.8125 C-64.52663921 135.36440686 -68.26458011 133.39127267 -71.9921875 131.18359375 C-73.95597233 130.02595405 -75.95081411 128.99702542 -78 128 C-76.6302153 123.89064591 -75.19622677 120.51296726 -72.9375 116.8125 C-72.38964844 115.91144531 -71.84179688 115.01039063 -71.27734375 114.08203125 C-70.64505859 113.05142578 -70.64505859 113.05142578 -70 112 C-64.87837498 112.74092225 -61.21500111 115.02213305 -56.81640625 117.625 C-51.69110858 120.12722577 -47.50946853 120.1806004 -42 119 C-41.34 116.03 -40.68 113.06 -40 110 C-41.32 109.34 -42.64 108.68 -44 108 C-44.62261719 107.52175781 -45.24523437 107.04351562 -45.88671875 106.55078125 C-48.39768284 104.70816989 -50.99065794 103.50242769 -53.8125 102.1875 C-58.90516386 99.6908526 -62.98856475 96.98908743 -67 93 C-67.53109375 92.49082031 -68.0621875 91.98164063 -68.609375 91.45703125 C-72.39316106 87.49255877 -72.18813182 82.95177196 -72.0703125 77.79296875 C-72.04710938 77.20128906 -72.02390625 76.60960937 -72 76 C-71.34 76 -70.68 76 -70 76 C-70.33 74.35 -70.66 72.7 -71 71 C-71.886875 70.71125 -72.77375 70.4225 -73.6875 70.125 C-77 69 -77 69 -79.25 67.9375 C-82.71835176 66.75510736 -85.65705336 66.80667389 -89.3125 66.875 C-90.56675781 66.89304687 -91.82101563 66.91109375 -93.11328125 66.9296875 C-94.06589844 66.95289063 -95.01851562 66.97609375 -96 67 C-96.02685938 64.85423363 -96.04633088 62.70837355 -96.0625 60.5625 C-96.07410156 59.36753906 -96.08570313 58.17257813 -96.09765625 56.94140625 C-96 54 -96 54 -95 53 C-94.76636119 51.15108054 -94.58696365 49.29511969 -94.4375 47.4375 C-94.35371094 46.42558594 -94.26992187 45.41367188 -94.18359375 44.37109375 C-94.09271484 43.19740234 -94.09271484 43.19740234 -94 42 C-93.34 42 -92.68 42 -92 42 C-92.01160156 41.28714844 -92.02320312 40.57429688 -92.03515625 39.83984375 C-92.17114719 25.40537663 -92.17114719 25.40537663 -89.4375 22.125 C-88.963125 21.75375 -88.48875 21.3825 -88 21 C-88 20.67 -88 20.34 -88 20 C-87.14768799 19.98541748 -86.29537598 19.97083496 -85.41723633 19.95581055 C-82.23928825 19.89456715 -79.06197454 19.82037971 -75.88452148 19.73754883 C-74.51224042 19.70440194 -73.13982638 19.67633829 -71.76733398 19.65356445 C-69.78862234 19.61983234 -67.81028624 19.5659851 -65.83203125 19.51171875 C-64.64327393 19.48553467 -63.4545166 19.45935059 -62.22973633 19.43237305 C-58.71576537 18.96194878 -56.87106208 18.02621398 -54 16 C-48.4237141 12.20812559 -45.29008698 10.86710792 -38.5390625 11.0078125 C-36.62480469 11.03294922 -36.62480469 11.03294922 -34.671875 11.05859375 C-32.64852347 11.08950334 -30.62559791 11.12498629 -28.60253906 11.17138672 C-26.64413016 11.21391927 -24.68531279 11.23609249 -22.7265625 11.2578125 C-21.55689941 11.2798877 -20.38723633 11.30196289 -19.18212891 11.32470703 C-12.88870257 10.68252067 -8.10235855 6.16242593 -3.8125 1.75 C-2 0 -2 0 0 0 Z M-41 24 C-41 24.33 -41 24.66 -41 25 C-36.38 25 -31.76 25 -27 25 C-27 24.67 -27 24.34 -27 24 C-31.62 24 -36.24 24 -41 24 Z M-90 25 C-90 26.98 -90 28.96 -90 31 C-89.67 31 -89.34 31 -89 31 C-89 29.02 -89 27.04 -89 25 C-89.33 25 -89.66 25 -90 25 Z M-82 26 C-81.67 26.66 -81.34 27.32 -81 28 C-81.66 28.66 -82.32 29.32 -83 30 C-83.33 30 -83.66 30 -84 30 C-84.33 34.29 -84.66 38.58 -85 43 C-85.33 43 -85.66 43 -86 43 C-87.10228696 47.40914783 -87.07654536 51.48382401 -87 56 C-83.28902898 58.37502145 -80.33191039 58.64978656 -76 58 C-73.88584664 56.43526279 -72.04994498 54.68280526 -70.13671875 52.87890625 C-61.96632461 45.69433663 -49.71430368 43 -39 43 C-38.71125 42.05125 -38.4225 41.1025 -38.125 40.125 C-36.71618854 36.21163483 -35.4534184 35.30227893 -32 33 C-31.33652369 30.51599015 -31.33652369 30.51599015 -31 28 C-30.67 27.34 -30.34 26.68 -30 26 C-37.37438114 25.2164218 -44.64808751 24.83915994 -52.0625 24.875 C-53.53891968 24.87790039 -53.53891968 24.87790039 -55.04516602 24.88085938 C-64.05187398 24.93319437 -73.01689941 25.371968 -82 26 Z M-91 31 C-90 35 -90 35 -90 35 Z M-33 37 C-32 39 -32 39 -32 39 Z M-41 43 C-40 45 -40 45 -40 45 Z M-68 55 C-70.30671915 57.71549154 -70.30671915 57.71549154 -69.625 60.1875 C-69.41875 60.785625 -69.2125 61.38375 -69 62 C-68.46632813 61.61328125 -67.93265625 61.2265625 -67.3828125 60.828125 C-58.41260295 54.55828995 -49.80202579 51.56074897 -39 50 C-40.0645852 47.39056942 -40.0645852 47.39056942 -42 45 C-50.7086625 43.04055094 -61.51191764 49.65267937 -68 55 Z M-88 58 C-88 58.33 -88 58.66 -88 59 C-86.35 59 -84.7 59 -83 59 C-83 58.67 -83 58.34 -83 58 C-84.65 58 -86.3 58 -88 58 Z M-59 58 C-59.66 58.66 -60.32 59.32 -61 60 C-60.01 60.33 -59.02 60.66 -58 61 C-57.34 60.34 -56.68 59.68 -56 59 C-56.99 58.67 -57.98 58.34 -59 58 Z M-62 60 C-62 60.99 -62 61.98 -62 63 C-61.34 62.34 -60.68 61.68 -60 61 C-60.66 60.67 -61.32 60.34 -62 60 Z M-82 65 C-82 65.33 -82 65.66 -82 66 C-80.35 66 -78.7 66 -77 66 C-77 65.67 -77 65.34 -77 65 C-78.65 65 -80.3 65 -82 65 Z M-69 71 C-68 73 -68 73 -68 73 Z M-51 79 C-50 81 -50 81 -50 81 Z M-70 85 C-69 88 -69 88 -69 88 Z M-39 113 C-38 115 -38 115 -38 115 Z " fill="#1586B9" transform="translate(158,164)"/>
<path d="M0 0 C0.33 0 0.66 0 1 0 C1.33 24.42 1.66 48.84 2 74 C3.10469142 72.01831527 3.10469142 72.01831527 3.43359375 69.70703125 C4.03001964 66.85652684 4.95116076 64.37622398 6.0625 61.6875 C6.42472656 60.80449219 6.78695313 59.92148437 7.16015625 59.01171875 C7.43730469 58.34785156 7.71445312 57.68398438 8 57 C8.66 57 9.32 57 10 57 C10.82196606 54.98299841 11.63213217 52.96118631 12.4375 50.9375 C12.88996094 49.81214844 13.34242188 48.68679688 13.80859375 47.52734375 C15.0994542 44.09405269 15.0994542 44.09405269 15.40869141 40.72143555 C16.0318292 36.79968103 17.15423675 33.60212861 18.65234375 29.9296875 C18.91253799 29.28556915 19.17273224 28.64145081 19.44081116 27.97781372 C20.26572504 25.94047798 21.10135314 23.90774766 21.9375 21.875 C22.49486359 20.50419998 23.05151055 19.13310836 23.60742188 17.76171875 C24.62962526 15.24276465 25.65672572 12.72602951 26.68725586 10.21044922 C27.80422069 7.47879819 28.90395521 4.74011197 30 2 C36.6 2 43.2 2 50 2 C50.66 3.65 51.32 5.3 52 7 C52.66 7 53.32 7 54 7 C54 8.65 54 10.3 54 12 C54.66 12 55.32 12 56 12 C56 13.65 56 15.3 56 17 C56.66 17 57.32 17 58 17 C58 18.65 58 20.3 58 22 C58.66 22 59.32 22 60 22 C60 23.65 60 25.3 60 27 C60.66 27 61.32 27 62 27 C63.34759868 30.22339513 64.67549859 33.45455316 66 36.6875 C66.3815625 37.59951172 66.763125 38.51152344 67.15625 39.45117188 C67.5171875 40.33740234 67.878125 41.22363281 68.25 42.13671875 C68.75273437 43.35427856 68.75273437 43.35427856 69.265625 44.59643555 C70.05642814 47.18468585 70.13400818 49.30936705 70 52 C70.66 52 71.32 52 72 52 C74.47575729 57.72302964 76.19470542 62.7877275 77 69 C77.88730843 71.72461556 78.92664934 74.33995705 80 77 C80.66 77 81.32 77 82 77 C81.505 78.98 81.505 78.98 81 81 C74.4 81 67.8 81 61 81 C60.01 78.69 59.02 76.38 58 74 C57.34 74 56.68 74 56 74 C55.34 71.69 54.68 69.38 54 67 C45.42 67 36.84 67 28 67 C27.34 68.32 26.68 69.64 26 71 C25.34 71.99 24.68 72.98 24 74 C23.83300768 77.12521833 23.83300768 77.12521833 24 80 C21.14163009 80.95278997 19.3335544 81.12871126 16.3671875 81.1328125 C15.03494141 81.13474609 15.03494141 81.13474609 13.67578125 81.13671875 C12.28939453 81.13091797 12.28939453 81.13091797 10.875 81.125 C9.94300781 81.12886719 9.01101563 81.13273437 8.05078125 81.13671875 C7.16519531 81.13542969 6.27960938 81.13414062 5.3671875 81.1328125 C4.55362793 81.13168457 3.74006836 81.13055664 2.90185547 81.12939453 C1 81 1 81 0 80 C-0.09502416 77.50507612 -0.12557566 75.03793986 -0.11352539 72.54272461 C-0.11367142 71.76229294 -0.11381744 70.98186127 -0.1139679 70.17778015 C-0.11326858 67.5859402 -0.10547536 64.99417122 -0.09765625 62.40234375 C-0.09579213 60.6101536 -0.0943682 58.81796294 -0.09336853 57.02577209 C-0.08954284 52.29929203 -0.07971212 47.57284248 -0.06866455 42.84637451 C-0.05845153 38.0271445 -0.05387115 33.20790958 -0.04882812 28.38867188 C-0.03808989 18.92576781 -0.02101286 9.46288644 0 0 Z M30 5 C31 7 31 7 31 7 Z M29 7 C30 9 30 9 30 9 Z M27 12 C28 14 28 14 28 14 Z M26 15 C27 17 27 17 27 17 Z M25 17 C26 19 26 19 26 19 Z M24 20 C25 22 25 22 25 22 Z M23 22 C24 24 24 24 24 24 Z M21 27 C22 29 22 29 22 29 Z M40 29 C40 29.99 40 30.98 40 32 C40.66 32 41.32 32 42 32 C41.67 31.01 41.34 30.02 41 29 C40.67 29 40.34 29 40 29 Z M19 32 C20 34 20 34 20 34 Z M62 32 C63 34 63 34 63 34 Z M39 34 C36.66794492 37.49808262 36.91650901 38.90894125 37 43 C36.67 44.32 36.34 45.64 36 47 C39.3 47 42.6 47 46 47 C45.690625 45.411875 45.38125 43.82375 45.0625 42.1875 C44.88847656 41.29417969 44.71445312 40.40085937 44.53515625 39.48046875 C44.02258847 36.88602829 44.02258847 36.88602829 43 34 C41.68 34 40.36 34 39 34 Z M18 35 C19 37 19 37 19 37 Z M17 37 C18 39 18 39 18 39 Z M64 37 C65 39 65 39 65 39 Z M44 38 C45 40 45 40 45 40 Z M16 40 C17 42 17 42 17 42 Z M66 42 C67 44 67 44 67 44 Z M35 43 C36 45 36 45 36 45 Z M46 43 C47 45 47 45 47 45 Z M68 47 C69 49 69 49 69 49 Z M33 48 C33 48.33 33 48.66 33 49 C38.28 49 43.56 49 49 49 C49 48.67 49 48.34 49 48 C43.72 48 38.44 48 33 48 Z M71 55 C72 57 72 57 72 57 Z M72 57 C73 59 73 59 73 59 Z M8 60 C9 62 9 62 9 62 Z M73 60 C74 62 74 62 74 62 Z M7 62 C8 64 8 64 8 64 Z M74 62 C75 64 75 64 75 64 Z M6 65 C7 67 7 67 7 67 Z M27 65 C27 65.33 27 65.66 27 66 C36.24 66 45.48 66 55 66 C55 65.67 55 65.34 55 65 C45.76 65 36.52 65 27 65 Z M26 66 C27 68 27 68 27 68 Z M5 67 C6 69 6 69 6 69 Z M56 69 C57 71 57 71 57 71 Z M4 70 C5 72 5 72 5 72 Z M1 77 C2 79 2 79 2 79 Z " fill="#137EAD" transform="translate(280,220)"/>
<path d="M0 0 C0.7734375 -0.00257813 1.546875 -0.00515625 2.34375 -0.0078125 C4.5 0.125 4.5 0.125 7.5 1.125 C7.49815641 1.67883771 7.49631283 2.23267542 7.49441338 2.80329609 C7.45026293 16.27348858 7.41728499 29.74366841 7.39637566 43.21391773 C7.38592505 49.72800703 7.37174254 56.24204421 7.34912109 62.75610352 C7.32743828 69.03897809 7.315441 75.32180244 7.31024551 81.60471153 C7.30654155 84.00536579 7.29930894 86.4060172 7.28853989 88.80665016 C7.27408569 92.16128164 7.27201952 95.51570388 7.27294922 98.87036133 C7.26575867 99.86945526 7.25856812 100.86854919 7.25115967 101.8979187 C7.253909 102.81077133 7.25665833 103.72362396 7.25949097 104.66413879 C7.25764738 105.45780255 7.25580379 106.25146631 7.25390434 107.06918049 C7.38000743 109.43453915 7.38000743 109.43453915 9.5 112.125 C10.33917969 111.65320313 10.33917969 111.65320313 11.1953125 111.171875 C43.02277056 94.18358549 81.30920084 102.67071144 114.41601562 110.61181641 C143.11204294 117.38009534 175.90123952 121.54480794 202.25 105.3125 C203.3225 104.590625 204.395 103.86875 205.5 103.125 C205.83 104.115 206.16 105.105 206.5 106.125 C205.76136719 106.55167969 205.02273438 106.97835937 204.26171875 107.41796875 C201.7725657 108.95652587 199.60135693 110.62392484 197.3125 112.4375 C179.28560248 124.95028769 154.59409948 125.59287503 133.5 123.125 C132.81180176 123.04652832 132.12360352 122.96805664 131.41455078 122.88720703 C119.91656603 121.49247327 108.71975619 118.84346958 97.4675293 116.1541748 C70.43636138 109.69723477 35.42684396 102.18702997 9.67578125 116.71875 C7.98332178 117.76634535 6.30730344 118.84141568 4.65625 119.953125 C2.5 121.125 2.5 121.125 -1.5 121.125 C-3.79633824 117.68049263 -4.04016485 115.18687717 -4.5 111.125 C-5.16 111.125 -5.82 111.125 -6.5 111.125 C-7.63534637 105.6873014 -7.63441718 100.42258716 -7.61352539 94.89697266 C-7.61367142 93.88172516 -7.61381744 92.86647766 -7.6139679 91.82046509 C-7.61327321 88.47664222 -7.60550161 85.13287559 -7.59765625 81.7890625 C-7.59579049 79.46593252 -7.59436733 77.14280215 -7.59336853 74.81967163 C-7.58955578 68.71395781 -7.57973609 62.60826788 -7.56866455 56.50256348 C-7.55842373 50.26863936 -7.55386519 44.03471136 -7.54882812 37.80078125 C-7.53811271 25.57551035 -7.5210512 13.35025716 -7.5 1.125 C-4.68772378 0.18757459 -2.91253156 -0.00970844 0 0 Z M-6.5 2.125 C-5.5 4.125 -5.5 4.125 -5.5 4.125 Z M4.5 112.125 C5.5 114.125 5.5 114.125 5.5 114.125 Z " fill="#1589BE" transform="translate(244.5,212.875)"/>
<path d="M0 0 C5.61 0 11.22 0 17 0 C17.33 15.18 17.66 30.36 18 46 C23.60101086 41.23692587 23.60101086 41.23692587 28.8125 36.1875 C32.79063171 32.06371587 32.79063171 32.06371587 36.15478516 31.88647461 C37.02409668 31.89171143 37.8934082 31.89694824 38.7890625 31.90234375 C39.73007813 31.90556641 40.67109375 31.90878906 41.640625 31.91210938 C43.11789063 31.92467773 43.11789063 31.92467773 44.625 31.9375 C45.61757812 31.94201172 46.61015625 31.94652344 47.6328125 31.95117188 C50.0886016 31.96297855 52.54427104 31.979446 55 32 C55.75366211 33.71582031 55.75366211 33.71582031 56 36 C54.36938477 38.19824219 54.36938477 38.19824219 51.94140625 40.546875 C51.08095703 41.39121094 50.22050781 42.23554688 49.33398438 43.10546875 C47.96209961 44.41451172 47.96209961 44.41451172 46.5625 45.75 C45.65177734 46.63816406 44.74105469 47.52632813 43.80273438 48.44140625 C41.54589523 50.63916583 39.27824049 52.82446837 37 55 C38.45299829 58.36152609 40.29042948 60.50218106 42.9140625 63.0390625 C43.67460937 63.78414063 44.43515625 64.52921875 45.21875 65.296875 C46.0128125 66.06515625 46.806875 66.8334375 47.625 67.625 C49.20502184 69.15421728 50.78078974 70.68784633 52.3515625 72.2265625 C53.05104004 72.90283691 53.75051758 73.57911133 54.47119141 74.27587891 C56 76 56 76 56 78 C56.66 78 57.32 78 58 78 C58 63.15 58 48.3 58 33 C58.33 33 58.66 33 59 33 C59.0252689 39.81761894 59.04283244 46.63522589 59.05493164 53.45288086 C59.05997333 55.77417451 59.06680651 58.09546497 59.07543945 60.41674805 C59.08751225 63.74528795 59.09322979 67.07378602 59.09765625 70.40234375 C59.10281754 71.44712387 59.10797882 72.49190399 59.11329651 73.56834412 C59.11337204 74.52926468 59.11344757 75.49018524 59.11352539 76.48022461 C59.115746 77.33071884 59.11796661 78.18121307 59.12025452 79.05747986 C59 81 59 81 58 82 C49.67448404 83.02506939 39.05541761 84.32005436 31.61328125 80.0625 C29.3125 77.625 29.3125 77.625 27.55078125 75.1640625 C25.85330469 72.79529168 24.62283347 72.14314942 22 71 C21.34 70.34 20.68 69.68 20 69 C19.95101562 69.85464844 19.90203125 70.70929688 19.8515625 71.58984375 C19.77679688 72.69457031 19.70203125 73.79929687 19.625 74.9375 C19.55539063 76.03964844 19.48578125 77.14179688 19.4140625 78.27734375 C19.27742188 79.17582031 19.14078125 80.07429688 19 81 C13.32745403 83.83627298 6.3420992 82 0 82 C0 54.94 0 27.88 0 0 Z " fill="#1588BD" transform="translate(148,219)"/>
<path d="M0 0 C0.99 1.485 0.99 1.485 2 3 C5.42684685 7.65153576 5.42684685 7.65153576 10 11 C10 12.32 10 13.64 10 15 C1.98067499 18.27055421 -5.48232534 18.52264883 -14 17 C-14.99 16.01 -14.99 16.01 -16 15 C-20.29815688 14.30121989 -24.65308184 14.19137376 -29 14 C-30.84464844 13.91878906 -30.84464844 13.91878906 -32.7265625 13.8359375 C-39.24622241 13.68236949 -44.3561318 13.56460197 -50 17 C-51.32 18.32 -52.64 19.64 -54 21 C-44.43 21.33 -34.86 21.66 -25 22 C-23.87663134 27.6168433 -23.87663134 27.6168433 -25.90625 30.84765625 C-26.52693359 31.87922852 -26.52693359 31.87922852 -27.16015625 32.93164062 C-27.60230469 33.63482422 -28.04445313 34.33800781 -28.5 35.0625 C-29.37583886 36.46307613 -30.24093639 37.87044209 -31.09375 39.28515625 C-31.48240234 39.90269775 -31.87105469 40.52023926 -32.27148438 41.15649414 C-33.52936889 44.33956584 -32.16748927 46.60919171 -30.875 49.625 C-30.58625 50.40875 -30.2975 51.1925 -30 52 C-30.495 52.99 -30.495 52.99 -31 54 C-31.90621094 53.96519531 -32.81242187 53.93039063 -33.74609375 53.89453125 C-43.09082424 53.68687057 -49.73788081 54.83479942 -58 59 C-59.051875 59.433125 -59.051875 59.433125 -60.125 59.875 C-63.30333901 61.78200341 -63.8664296 64.59928881 -65 68 C-67 70 -67 70 -69 71 C-69.33 71.66 -69.66 72.32 -70 73 C-70.66 72.34 -71.32 71.68 -72 71 C-78.11818609 67.67489887 -82.29232728 66.8730771 -89.25 66.9375 C-91.14492187 66.95103516 -91.14492187 66.95103516 -93.078125 66.96484375 C-94.04234375 66.97644531 -95.0065625 66.98804688 -96 67 C-96.02685938 64.85423363 -96.04633088 62.70837355 -96.0625 60.5625 C-96.07410156 59.36753906 -96.08570313 58.17257813 -96.09765625 56.94140625 C-96 54 -96 54 -95 53 C-94.76636119 51.15108054 -94.58696365 49.29511969 -94.4375 47.4375 C-94.35371094 46.42558594 -94.26992187 45.41367188 -94.18359375 44.37109375 C-94.09271484 43.19740234 -94.09271484 43.19740234 -94 42 C-93.34 42 -92.68 42 -92 42 C-92.01160156 41.28714844 -92.02320312 40.57429688 -92.03515625 39.83984375 C-92.17114719 25.40537663 -92.17114719 25.40537663 -89.4375 22.125 C-88.963125 21.75375 -88.48875 21.3825 -88 21 C-88 20.67 -88 20.34 -88 20 C-87.14768799 19.98541748 -86.29537598 19.97083496 -85.41723633 19.95581055 C-82.23928825 19.89456715 -79.06197454 19.82037971 -75.88452148 19.73754883 C-74.51224042 19.70440194 -73.13982638 19.67633829 -71.76733398 19.65356445 C-69.78862234 19.61983234 -67.81028624 19.5659851 -65.83203125 19.51171875 C-64.64327393 19.48553467 -63.4545166 19.45935059 -62.22973633 19.43237305 C-58.71576537 18.96194878 -56.87106208 18.02621398 -54 16 C-48.4237141 12.20812559 -45.29008698 10.86710792 -38.5390625 11.0078125 C-36.62480469 11.03294922 -36.62480469 11.03294922 -34.671875 11.05859375 C-32.64852347 11.08950334 -30.62559791 11.12498629 -28.60253906 11.17138672 C-26.64413016 11.21391927 -24.68531279 11.23609249 -22.7265625 11.2578125 C-21.55689941 11.2798877 -20.38723633 11.30196289 -19.18212891 11.32470703 C-12.88870257 10.68252067 -8.10235855 6.16242593 -3.8125 1.75 C-2 0 -2 0 0 0 Z M-41 24 C-41 24.33 -41 24.66 -41 25 C-36.38 25 -31.76 25 -27 25 C-27 24.67 -27 24.34 -27 24 C-31.62 24 -36.24 24 -41 24 Z M-90 25 C-90 26.98 -90 28.96 -90 31 C-89.67 31 -89.34 31 -89 31 C-89 29.02 -89 27.04 -89 25 C-89.33 25 -89.66 25 -90 25 Z M-82 26 C-81.67 26.66 -81.34 27.32 -81 28 C-81.66 28.66 -82.32 29.32 -83 30 C-83.33 30 -83.66 30 -84 30 C-84.33 34.29 -84.66 38.58 -85 43 C-85.33 43 -85.66 43 -86 43 C-87.10228696 47.40914783 -87.07654536 51.48382401 -87 56 C-83.28902898 58.37502145 -80.33191039 58.64978656 -76 58 C-73.88584664 56.43526279 -72.04994498 54.68280526 -70.13671875 52.87890625 C-61.96632461 45.69433663 -49.71430368 43 -39 43 C-38.71125 42.05125 -38.4225 41.1025 -38.125 40.125 C-36.71618854 36.21163483 -35.4534184 35.30227893 -32 33 C-31.33652369 30.51599015 -31.33652369 30.51599015 -31 28 C-30.67 27.34 -30.34 26.68 -30 26 C-37.37438114 25.2164218 -44.64808751 24.83915994 -52.0625 24.875 C-53.53891968 24.87790039 -53.53891968 24.87790039 -55.04516602 24.88085938 C-64.05187398 24.93319437 -73.01689941 25.371968 -82 26 Z M-91 31 C-90 35 -90 35 -90 35 Z M-33 37 C-32 39 -32 39 -32 39 Z M-41 43 C-40 45 -40 45 -40 45 Z M-68 55 C-70.30671915 57.71549154 -70.30671915 57.71549154 -69.625 60.1875 C-69.41875 60.785625 -69.2125 61.38375 -69 62 C-68.46632813 61.61328125 -67.93265625 61.2265625 -67.3828125 60.828125 C-58.41260295 54.55828995 -49.80202579 51.56074897 -39 50 C-40.0645852 47.39056942 -40.0645852 47.39056942 -42 45 C-50.7086625 43.04055094 -61.51191764 49.65267937 -68 55 Z M-88 58 C-88 58.33 -88 58.66 -88 59 C-86.35 59 -84.7 59 -83 59 C-83 58.67 -83 58.34 -83 58 C-84.65 58 -86.3 58 -88 58 Z M-82 65 C-82 65.33 -82 65.66 -82 66 C-80.35 66 -78.7 66 -77 66 C-77 65.67 -77 65.34 -77 65 C-78.65 65 -80.3 65 -82 65 Z " fill="#E47F12" transform="translate(158,164)"/>
<path d="M0 0 C1.06528748 2.73019786 1.07998186 3.79298812 0.00390625 6.578125 C-0.47175781 7.45984375 -0.94742188 8.3415625 -1.4375 9.25 C-1.91058594 10.14203125 -2.38367188 11.0340625 -2.87109375 11.953125 C-3.24363281 12.62859375 -3.61617188 13.3040625 -4 14 C-4.804375 13.835 -5.60875 13.67 -6.4375 13.5 C-10.65887352 12.90752652 -14.74664545 12.91493291 -19 13 C-20.49997444 15.94952958 -21.80023567 18.91489173 -23 22 C-23.66 22 -24.32 22 -25 22 C-24.67 22.66 -24.34 23.32 -24 24 C-23.71125 24.61875 -23.4225 25.2375 -23.125 25.875 C-21.94398566 28.10580487 -20.52270402 29.99279925 -19 32 C-19 32.33 -19 32.66 -19 33 C-13.87416389 33.10251672 -9.05002222 33.03590199 -4 32 C-3.13116294 33.57533086 -2.28040932 35.16064509 -1.4375 36.75 C-0.96183594 37.63171875 -0.48617187 38.5134375 0.00390625 39.421875 C1.07998186 42.20701188 1.06528748 43.26980214 0 46 C-9.10053913 49.00962711 -18.55531582 51.15082391 -27.75 47.375 C-32.19801791 45.09851896 -36.20918939 42.24694699 -40 39 C-41.07314453 38.23623047 -41.07314453 38.23623047 -42.16796875 37.45703125 C-45.08650291 33.54283512 -44.83600748 29.45312271 -45 24.6875 C-45.06316406 23.76259766 -45.12632812 22.83769531 -45.19140625 21.88476562 C-45.46564751 15.66125841 -44.80475671 12.00034866 -41 7 C-38.9921875 5.75 -38.9921875 5.75 -37 5 C-35.69000499 4.02413328 -34.39857001 3.0229478 -33.125 2 C-22.98968399 -5.61076843 -11.45906483 -3.78961199 0 0 Z M-1 2 C0 4 0 4 0 4 Z M-5 10 C-4 12 -4 12 -4 12 Z M-44 14 C-43 16 -43 16 -43 16 Z M-1 42 C0 44 0 44 0 44 Z " fill="#1483B5" transform="translate(450,253)"/>
<path d="M0 0 C0.87785156 0.01546875 1.75570312 0.0309375 2.66015625 0.046875 C4.9375 0.25 4.9375 0.25 6.9375 1.25 C7.3515625 3.31640625 7.3515625 3.31640625 7.5625 5.8125 C7.63726562 6.63878906 7.71203125 7.46507812 7.7890625 8.31640625 C7.83804688 8.95449219 7.88703125 9.59257812 7.9375 10.25 C8.82050781 9.85167969 9.70351562 9.45335937 10.61328125 9.04296875 C44.51331461 -5.92256692 79.03674493 0.38555602 113.85351562 8.73681641 C142.54954294 15.50509534 175.33873952 19.66980794 201.6875 3.4375 C202.76 2.715625 203.8325 1.99375 204.9375 1.25 C205.2675 2.24 205.5975 3.23 205.9375 4.25 C205.19886719 4.67667969 204.46023438 5.10335938 203.69921875 5.54296875 C201.2100657 7.08152587 199.03885693 8.74892484 196.75 10.5625 C178.72310248 23.07528769 154.03159948 23.71787503 132.9375 21.25 C132.24930176 21.17152832 131.56110352 21.09305664 130.85205078 21.01220703 C119.35406603 19.61747327 108.15725619 16.96846958 96.9050293 14.2791748 C69.87386138 7.82223477 34.86434396 0.31202997 9.11328125 14.84375 C7.42082178 15.89134535 5.74480344 16.96641568 4.09375 18.078125 C1.9375 19.25 1.9375 19.25 -2.0625 19.25 C-4.35883824 15.80549263 -4.60266485 13.31187717 -5.0625 9.25 C-5.7225 9.25 -6.3825 9.25 -7.0625 9.25 C-7.75 6.4375 -7.75 6.4375 -8.0625 3.25 C-5.80992786 -0.00791474 -3.81108819 -0.11225591 0 0 Z M3.9375 10.25 C4.9375 12.25 4.9375 12.25 4.9375 12.25 Z " fill="#E37600" transform="translate(245.0625,314.75)"/>
<path d="M0 0 C5.61 0 11.22 0 17 0 C17 27.06 17 54.12 17 82 C11.39 82 5.78 82 0 82 C0 54.94 0 27.88 0 0 Z " fill="#168DC2" transform="translate(262,219)"/>
<path d="M0 0 C-0.60355408 3.85025879 -1.76772603 6.86101159 -3.5625 10.3125 C-4.01753906 11.19550781 -4.47257812 12.07851563 -4.94140625 12.98828125 C-5.46541016 13.98408203 -5.46541016 13.98408203 -6 15 C-6.804375 14.835 -7.60875 14.67 -8.4375 14.5 C-12.60174676 13.91554432 -16.80672789 13.50519389 -21 14 C-23.35953094 16.35953094 -23.49141413 17.77895617 -24 21 C-24.66 21 -25.32 21 -26 21 C-26.33 29.91 -26.66 38.82 -27 48 C-32.61 48 -38.22 48 -44 48 C-44 31.5 -44 15 -44 -2 C-38.39 -2 -32.78 -2 -27 -2 C-26.34 -0.68 -25.68 0.64 -25 2 C-23.6078125 1.0409375 -23.6078125 1.0409375 -22.1875 0.0625 C-14.53676415 -4.88797614 -7.86393956 -3.37025981 0 0 Z M-5 7 C-4 9 -4 9 -4 9 Z M-7 11 C-6 13 -6 13 -6 13 Z " fill="#1588BD" transform="translate(407,253)"/>
<path d="M0 0 C5.94 0 11.88 0 18 0 C18 16.5 18 33 18 50 C12.06 50 6.12 50 0 50 C0 33.5 0 17 0 0 Z " fill="#1483B5" transform="translate(208,251)"/>
<path d="M0 0 C0.33 1.32 0.66 2.64 1 4 C1.66 4 2.32 4 3 4 C3.33 3.01 3.66 2.02 4 1 C6.16926659 4.25389988 6.24080049 5.13395957 6.1953125 8.88671875 C6.18564453 10.2934082 6.18564453 10.2934082 6.17578125 11.72851562 C6.15902344 12.70498047 6.14226562 13.68144531 6.125 14.6875 C6.11597656 15.67556641 6.10695313 16.66363281 6.09765625 17.68164062 C6.0740843 20.12133765 6.04118022 22.56054697 6 25 C9.7649387 26.25497957 12.03008618 26.52064444 16 26 C18.11180529 24.44462474 19.92840677 22.70176965 21.82421875 20.890625 C26.38606276 16.92665282 31.59170446 14.20761168 37.625 13.6875 C38.40875 13.790625 39.1925 13.89375 40 14 C40 14.66 40 15.32 40 16 C38.53626953 16.68835938 38.53626953 16.68835938 37.04296875 17.390625 C35.75755225 18.00987674 34.47241025 18.6296985 33.1875 19.25 C32.54490234 19.55035156 31.90230469 19.85070312 31.24023438 20.16015625 C27.63962965 21.91381865 24.84683849 23.35012156 23 27 C23.33 27.99 23.66 28.98 24 30 C24.81791016 29.29423828 24.81791016 29.29423828 25.65234375 28.57421875 C35.55988068 20.3941498 43.26928257 19.51105353 56 20 C56 19.01 56 18.02 56 17 C57.98 17.66 59.96 18.32 62 19 C61.67 20.32 61.34 21.64 61 23 C60.09378906 22.96519531 59.18757813 22.93039063 58.25390625 22.89453125 C48.90917576 22.68687057 42.26211919 23.83479942 34 28 C32.948125 28.433125 32.948125 28.433125 31.875 28.875 C28.69666099 30.78200341 28.1335704 33.59928881 27 37 C25 39 25 39 23 40 C22.67 40.66 22.34 41.32 22 42 C21.34 41.34 20.68 40.68 20 40 C13.88181391 36.67489887 9.70767272 35.8730771 2.75 35.9375 C0.85507813 35.95103516 0.85507813 35.95103516 -1.078125 35.96484375 C-2.04234375 35.97644531 -3.0065625 35.98804688 -4 36 C-4.02685938 33.85423363 -4.04633088 31.70837355 -4.0625 29.5625 C-4.07410156 28.36753906 -4.08570313 27.17257813 -4.09765625 25.94140625 C-4 23 -4 23 -3 22 C-2.76636119 20.15108054 -2.58696365 18.29511969 -2.4375 16.4375 C-2.35371094 15.42558594 -2.26992188 14.41367188 -2.18359375 13.37109375 C-2.12300781 12.58863281 -2.06242187 11.80617187 -2 11 C-1.34 11 -0.68 11 0 11 C0 7.37 0 3.74 0 0 Z M4 27 C4 27.33 4 27.66 4 28 C5.65 28 7.3 28 9 28 C9 27.67 9 27.34 9 27 C7.35 27 5.7 27 4 27 Z M10 34 C10 34.33 10 34.66 10 35 C11.65 35 13.3 35 15 35 C15 34.67 15 34.34 15 34 C13.35 34 11.7 34 10 34 Z " fill="#AE610E" transform="translate(66,195)"/>
<path d="M0 0 C0.99 1.485 0.99 1.485 2 3 C5.42684685 7.65153576 5.42684685 7.65153576 10 11 C10 12.32 10 13.64 10 15 C1.98067499 18.27055421 -5.48232534 18.52264883 -14 17 C-14.99 16.01 -14.99 16.01 -16 15 C-20.29815688 14.30121989 -24.65308184 14.19137376 -29 14 C-30.84464844 13.91878906 -30.84464844 13.91878906 -32.7265625 13.8359375 C-41.82072221 13.58859412 -41.82072221 13.58859412 -50 17 C-51.07121094 18.53140625 -51.07121094 18.53140625 -52.1640625 20.09375 C-55.00167983 22.98664559 -57.48400726 23.40456385 -61.48260498 23.5710144 C-65.11795748 23.59680715 -68.7421488 23.50032509 -72.375 23.375 C-73.88927017 23.34487655 -75.40359774 23.3175049 -76.91796875 23.29296875 C-80.61317898 23.22712763 -84.30622321 23.1237393 -88 23 C-88 22.01 -88 21.02 -88 20 C-87.14768799 19.98541748 -86.29537598 19.97083496 -85.41723633 19.95581055 C-82.23928825 19.89456715 -79.06197454 19.82037971 -75.88452148 19.73754883 C-74.51224042 19.70440194 -73.13982638 19.67633829 -71.76733398 19.65356445 C-69.78862234 19.61983234 -67.81028624 19.5659851 -65.83203125 19.51171875 C-64.64327393 19.48553467 -63.4545166 19.45935059 -62.22973633 19.43237305 C-58.71576537 18.96194878 -56.87106208 18.02621398 -54 16 C-48.4237141 12.20812559 -45.29008698 10.86710792 -38.5390625 11.0078125 C-36.62480469 11.03294922 -36.62480469 11.03294922 -34.671875 11.05859375 C-32.64852347 11.08950334 -30.62559791 11.12498629 -28.60253906 11.17138672 C-26.64413016 11.21391927 -24.68531279 11.23609249 -22.7265625 11.2578125 C-21.55689941 11.2798877 -20.38723633 11.30196289 -19.18212891 11.32470703 C-12.88870257 10.68252067 -8.10235855 6.16242593 -3.8125 1.75 C-2 0 -2 0 0 0 Z " fill="#106C95" transform="translate(158,164)"/>
<path d="M0 0 C2.875 1.4375 2.875 1.4375 5 3 C5.66 3.33 6.32 3.66 7 4 C6.979375 5.0725 6.95875 6.145 6.9375 7.25 C6.9857984 10.14790424 7.13155885 12.28612141 8 15 C5.5 16.5 5.5 16.5 3 18 C2.21625 18.5775 1.4325 19.155 0.625 19.75 C-3.02690907 21.48900432 -5.13333047 21.03571505 -9 20 C-11.70567626 18.17660948 -13.53728718 16.92542564 -15 14 C-15.06996014 12.29297265 -15.08440154 10.58331997 -15.0625 8.875 C-15.05347656 7.96492187 -15.04445312 7.05484375 -15.03515625 6.1171875 C-15.02355469 5.41851562 -15.01195312 4.71984375 -15 4 C-9.64061209 0.42707473 -6.45357898 -0.72862988 0 0 Z " fill="#1481B2" transform="translate(221,222)"/>
<path d="M0 0 C10.23 0 20.46 0 31 0 C32.12278373 5.61391865 32.12278373 5.61391865 30.09375 8.77734375 C29.67996094 9.45603516 29.26617187 10.13472656 28.83984375 10.83398438 C27.94838387 12.2335504 27.0551603 13.63199464 26.16015625 15.02929688 C23.47893149 19.41126642 23.47893149 19.41126642 23.21875 24.50390625 C23.4765625 25.32761719 23.734375 26.15132812 24 27 C22.68 26.67 21.36 26.34 20 26 C19.67 26.99 19.34 27.98 19 29 C16.69 29 14.38 29 12 29 C11.67 28.01 11.34 27.02 11 26 C12.32 25.67 13.64 25.34 15 25 C13.97878487 23.74605776 13.97878487 23.74605776 11.8203125 23.97265625 C10.0285512 24.03238163 8.23687965 24.0948659 6.4453125 24.16015625 C4 24 4 24 1 22 C1.90363281 21.87882812 2.80726562 21.75765625 3.73828125 21.6328125 C4.91777344 21.46523437 6.09726563 21.29765625 7.3125 21.125 C8.48425781 20.96257812 9.65601562 20.80015625 10.86328125 20.6328125 C14.14530895 20.17699379 14.14530895 20.17699379 17 18 C17.309375 17.175 17.61875 16.35 17.9375 15.5 C19 13 19 13 21.0625 12 C21.701875 11.67 22.34125 11.34 23 11 C23.73740217 8.48051222 23.73740217 8.48051222 24 6 C24.33 5.67 24.66 5.34 25 5 C21.7 4.67 18.4 4.34 15 4 C15 3.67 15 3.34 15 3 C18.3 2.67 21.6 2.34 25 2 C16.75 1.67 8.5 1.34 0 1 C0 0.67 0 0.34 0 0 Z M23 15 C24 17 24 17 24 17 Z M15 21 C16 23 16 23 16 23 Z " fill="#583106" transform="translate(102,186)"/>
<path d="M0 0 C0.87785156 0.01546875 1.75570312 0.0309375 2.66015625 0.046875 C4.9375 0.25 4.9375 0.25 6.9375 1.25 C7.3515625 3.31640625 7.3515625 3.31640625 7.5625 5.8125 C7.63726562 6.63878906 7.71203125 7.46507812 7.7890625 8.31640625 C7.83804688 8.95449219 7.88703125 9.59257812 7.9375 10.25 C8.9275 10.58 9.9175 10.91 10.9375 11.25 C11.2675 11.91 11.5975 12.57 11.9375 13.25 C10.36106682 14.26084265 8.7760483 15.25830511 7.1875 16.25 C6.30578125 16.806875 5.4240625 17.36375 4.515625 17.9375 C1.9375 19.25 1.9375 19.25 -2.0625 19.25 C-4.35883824 15.80549263 -4.60266485 13.31187717 -5.0625 9.25 C-5.7225 9.25 -6.3825 9.25 -7.0625 9.25 C-7.75 6.4375 -7.75 6.4375 -8.0625 3.25 C-5.80992786 -0.00791474 -3.81108819 -0.11225591 0 0 Z M3.9375 10.25 C4.9375 12.25 4.9375 12.25 4.9375 12.25 Z " fill="#CA6C03" transform="translate(245.0625,314.75)"/>
<path d="M0 0 C3.69230769 0.69230769 3.69230769 0.69230769 5 2 C5.08790975 4.29151417 5.10694038 6.58572524 5.09765625 8.87890625 C5.0962413 9.5655687 5.09482635 10.25223114 5.09336853 10.95970154 C5.08775479 13.16067801 5.07520007 15.36155409 5.0625 17.5625 C5.05748676 19.05143083 5.05292355 20.54036324 5.04882812 22.02929688 C5.03778093 25.68623075 5.02050713 29.34310558 5 33 C3.34385343 33.38218767 1.67542976 33.71395102 0 34 C-1.67673649 32.32326351 -1.12787817 30.27144924 -1.13894653 28.03344727 C-1.1369223 27.34178467 -1.13489807 26.65012207 -1.1328125 25.9375 C-1.13376923 25.23101318 -1.13472595 24.52452637 -1.13571167 23.79663086 C-1.13639333 22.30029207 -1.13454005 20.80395033 -1.13037109 19.30761719 C-1.12502257 17.00969843 -1.13031651 14.71197514 -1.13671875 12.4140625 C-1.13605797 10.96354123 -1.1347768 9.51302009 -1.1328125 8.0625 C-1.13483673 7.3708374 -1.13686096 6.6791748 -1.13894653 5.96655273 C-1.11495224 1.11495224 -1.11495224 1.11495224 0 0 Z " fill="#EF840D" transform="translate(243,224)"/>
<path d="M0 0 C0.66163651 0.00141495 1.32327301 0.0028299 2.00495911 0.00428772 C4.11402953 0.00987629 6.22299302 0.0224266 8.33203125 0.03515625 C9.76367034 0.04017273 11.1953111 0.04473538 12.62695312 0.04882812 C16.13284713 0.05984195 19.63867875 0.0770987 23.14453125 0.09765625 C22.81453125 1.41765625 22.48453125 2.73765625 22.14453125 4.09765625 C21.36851562 4.02546875 20.5925 3.95328125 19.79296875 3.87890625 C3.41872103 1.71131932 3.41872103 1.71131932 -11.85546875 6.09765625 C-12.56960937 7.11859375 -13.28375 8.13953125 -14.01953125 9.19140625 C-16.85714858 12.08430184 -19.33947601 12.5022201 -23.33807373 12.66867065 C-26.97342623 12.6944634 -30.59761755 12.59798134 -34.23046875 12.47265625 C-35.74473892 12.4425328 -37.25906649 12.41516115 -38.7734375 12.390625 C-42.46864773 12.32478388 -46.16169196 12.22139555 -49.85546875 12.09765625 C-49.85546875 11.10765625 -49.85546875 10.11765625 -49.85546875 9.09765625 C-49.00315674 9.08307373 -48.15084473 9.06849121 -47.27270508 9.0534668 C-44.094757 8.9922234 -40.91744329 8.91803596 -37.73999023 8.83520508 C-36.36770917 8.80205819 -34.99529513 8.77399454 -33.62280273 8.7512207 C-31.64409109 8.71748859 -29.66575499 8.66364135 -27.6875 8.609375 C-26.49874268 8.58319092 -25.30998535 8.55700684 -24.08520508 8.5300293 C-20.57123412 8.05960503 -18.72653083 7.12387023 -15.85546875 5.09765625 C-10.15094982 1.21858338 -6.90821979 -0.02914861 0 0 Z " fill="#10282F" transform="translate(119.85546875,174.90234375)"/>
<path d="M0 0 C1.98 0.66 3.96 1.32 6 2 C5.67 3.32 5.34 4.64 5 6 C3.64068359 5.94779297 3.64068359 5.94779297 2.25390625 5.89453125 C-7.09082424 5.68687057 -13.73788081 6.83479942 -22 11 C-22.70125 11.28875 -23.4025 11.5775 -24.125 11.875 C-27.30333901 13.78200341 -27.8664296 16.59928881 -29 20 C-31 22 -31 22 -33 23 C-33.33 23.66 -33.66 24.32 -34 25 C-35 22 -35 22 -34 19 C-31.5 17 -31.5 17 -29 15 C-28.67 14.01 -28.34 13.02 -28 12 C-28.66 11.67 -29.32 11.34 -30 11 C-20.32690765 3.38501241 -12.21620896 2.53081417 0 3 C0 2.01 0 1.02 0 0 Z " fill="#99540C" transform="translate(122,212)"/>
<path d="M0 0 C0.7734375 -0.00257813 1.546875 -0.00515625 2.34375 -0.0078125 C4.5 0.125 4.5 0.125 7.5 1.125 C7.5 20.925 7.5 40.725 7.5 61.125 C7.17 61.125 6.84 61.125 6.5 61.125 C6.17 42.975 5.84 24.825 5.5 6.125 C1.87 6.125 -1.76 6.125 -5.5 6.125 C-6.16 5.795 -6.82 5.465 -7.5 5.125 C-7.5 3.805 -7.5 2.485 -7.5 1.125 C-4.68772378 0.18757459 -2.91253156 -0.00970844 0 0 Z M-6.5 2.125 C-5.5 4.125 -5.5 4.125 -5.5 4.125 Z " fill="#113F51" transform="translate(244.5,212.875)"/>
<path d="M0 0 C3.96 0 7.92 0 12 0 C11.67 2.31 11.34 4.62 11 7 C8.69 6.67 6.38 6.34 4 6 C3.67 16.23 3.34 26.46 3 37 C2.67 37 2.34 37 2 37 C1.67 34.69 1.34 32.38 1 30 C0.67 30 0.34 30 0 30 C0 20.1 0 10.2 0 0 Z " fill="#358EAB" transform="translate(239,219)"/>
<path d="M0 0 C0.33 0 0.66 0 1 0 C1 31.35 1 62.7 1 95 C0.67 95 0.34 95 0 95 C0 63.65 0 32.3 0 0 Z " fill="#000000" transform="translate(253,219)"/>
<path d="M0 0 C0.66 0.33 1.32 0.66 2 1 C-3.94 6.94 -9.88 12.88 -16 19 C-14.19522505 22.6095499 -12.88074534 24.35628071 -10.0859375 27.109375 C-9.32539063 27.86347656 -8.56484375 28.61757813 -7.78125 29.39453125 C-6.9871875 30.17183594 -6.193125 30.94914062 -5.375 31.75 C-4.57320312 32.54277344 -3.77140625 33.33554687 -2.9453125 34.15234375 C-0.96797154 36.10614493 1.01388909 38.05512103 3 40 C2.67 40.66 2.34 41.32 2 42 C-5.26 34.74 -12.52 27.48 -20 20 C-13.25068871 12.12580349 -13.25068871 12.12580349 -10.60546875 9.7265625 C-10.04279297 9.21222656 -9.48011719 8.69789063 -8.90039062 8.16796875 C-8.05250977 7.40419922 -8.05250977 7.40419922 -7.1875 6.625 C-6.03513338 5.57554595 -4.88278846 4.52606806 -3.73046875 3.4765625 C-2.37888672 2.25066406 -2.37888672 2.25066406 -1 1 C-0.67 0.67 -0.34 0.34 0 0 Z " fill="#000103" transform="translate(201,255)"/>
<path d="M0 0 C0.94074875 0.00022659 1.8814975 0.00045319 2.85075378 0.00068665 C4.36962944 0.02391243 4.36962944 0.02391243 5.91918945 0.04760742 C6.95815872 0.05185226 7.99712799 0.05609711 9.06758118 0.06047058 C12.38947346 0.07727769 15.71076145 0.11493421 19.0324707 0.15307617 C21.28311299 0.16812036 23.53376478 0.18180922 25.78442383 0.1940918 C31.30481268 0.22718781 36.82484852 0.27740748 42.3449707 0.34057617 C42.3449707 0.67057617 42.3449707 1.00057617 42.3449707 1.34057617 C35.32868434 2.11677726 28.33476631 2.61045728 21.2824707 2.90307617 C20.29110107 2.94553467 19.29973145 2.98799316 18.27832031 3.03173828 C9.6302929 3.37749241 0.99824276 3.44511234 -7.6550293 3.34057617 C-5.24298433 0.39057977 -3.76665248 -0.03029479 0 0 Z " fill="#A45B0D" transform="translate(84.655029296875,186.659423828125)"/>
<path d="M0 0 C0.33 0 0.66 0 1 0 C1 26.73 1 53.46 1 81 C0.67 81 0.34 81 0 81 C0 54.27 0 27.54 0 0 Z " fill="#000000" transform="translate(146,219)"/>
<path d="M0 0 C0.33 0 0.66 0 1 0 C1 26.4 1 52.8 1 80 C0.67 80 0.34 80 0 80 C0 53.6 0 27.2 0 0 Z " fill="#000000" transform="translate(260,220)"/>
<path d="M0 0 C-2.475 1.485 -2.475 1.485 -5 3 C-4.34 3.66 -3.68 4.32 -3 5 C-5.413762 5.69951063 -7.83010234 6.38483919 -10.25 7.0625 C-10.93191406 7.26166016 -11.61382812 7.46082031 -12.31640625 7.66601562 C-18.58342161 9.40009269 -18.58342161 9.40009269 -22 8 C-18.77046544 4.2295184 -15.6514978 2.81848069 -11 1.1875 C-9.783125 0.74792969 -8.56625 0.30835938 -7.3125 -0.14453125 C-4.2249257 -0.94191188 -2.88960391 -1.17751359 0 0 Z " fill="#D46F00" transform="translate(277,318)"/>
<path d="M0 0 C10.23 0 20.46 0 31 0 C32 5 32 5 30.9375 6.75 C28.36492987 8.40972267 26.0128598 8.6652378 23 9 C23.66 7.68 24.32 6.36 25 5 C21.7 4.67 18.4 4.34 15 4 C15 3.67 15 3.34 15 3 C18.3 2.67 21.6 2.34 25 2 C16.75 1.67 8.5 1.34 0 1 C0 0.67 0 0.34 0 0 Z " fill="#251403" transform="translate(102,186)"/>
<path d="M0 0 C0.66 0.33 1.32 0.66 2 1 C2 1.99 2 2.98 2 4 C-0.02827807 5.01413903 -2.02695989 6.01110113 -4.125 6.875 C-7.30333901 8.78200341 -7.8664296 11.59928881 -9 15 C-11 17 -11 17 -13 18 C-13.33 18.66 -13.66 19.32 -14 20 C-15 17 -15 17 -14 14 C-12.33333333 12.66666667 -10.66666667 11.33333333 -9 10 C-8.67 9.01 -8.34 8.02 -8 7 C-8.66 6.67 -9.32 6.34 -10 6 C-8.89932004 5.18278283 -7.79430269 4.37140549 -6.6875 3.5625 C-6.07261719 3.11003906 -5.45773438 2.65757812 -4.82421875 2.19140625 C-3 1 -3 1 0 0 Z " fill="#884B0A" transform="translate(102,217)"/>
<path d="M0 0 C1.21236328 0.01353516 1.21236328 0.01353516 2.44921875 0.02734375 C3.37154297 0.04474609 3.37154297 0.04474609 4.3125 0.0625 C4.3125 2.0425 4.3125 4.0225 4.3125 6.0625 C2.68759046 6.08948189 1.06255367 6.10888757 -0.5625 6.125 C-1.91988281 6.14240234 -1.91988281 6.14240234 -3.3046875 6.16015625 C-5.6875 6.0625 -5.6875 6.0625 -7.6875 5.0625 C-7.6875 3.7425 -7.6875 2.4225 -7.6875 1.0625 C-4.80538698 0.10179566 -2.98899956 -0.04331883 0 0 Z M-6.6875 2.0625 C-5.6875 4.0625 -5.6875 4.0625 -5.6875 4.0625 Z " fill="#DD7A08" transform="translate(244.6875,212.9375)"/>
<path d="M0 0 C0.66 0.99 1.32 1.98 2 3 C0.9171875 3.62841797 0.9171875 3.62841797 -0.1875 4.26953125 C-3.79353112 6.48824206 -7.12234385 9.02514387 -10.5 11.57421875 C-13.27839338 13.15877122 -14.85667246 13.2974935 -18 13 C-18.33 12.01 -18.66 11.02 -19 10 C-18.21496094 9.69707031 -17.42992187 9.39414062 -16.62109375 9.08203125 C-10.45391994 6.62272881 -5.20030336 4.13660494 0 0 Z " fill="#CB6B00" transform="translate(449,316)"/>
<path d="M0 0 C0.33 0 0.66 0 1 0 C1 21.12 1 42.24 1 64 C0.67 64 0.34 64 0 64 C0 42.88 0 21.76 0 0 Z " fill="#000000" transform="translate(235,219)"/>
<path d="M0 0 C2 1 2 1 3 3 C1.42356682 4.01084265 -0.1614517 5.00830511 -1.75 6 C-2.63171875 6.556875 -3.5134375 7.11375 -4.421875 7.6875 C-7 9 -7 9 -11 9 C-11.66 8.01 -12.32 7.02 -13 6 C-12.67 5.01 -12.34 4.02 -12 3 C-10.948125 3.2475 -9.89625 3.495 -8.8125 3.75 C-4.94633751 4.3889842 -4.94633751 4.3889842 -2.0625 2.0625 C-1.381875 1.381875 -0.70125 0.70125 0 0 Z " fill="#B35F04" transform="translate(254,325)"/>
<path d="M0 0 C0.66 0.33 1.32 0.66 2 1 C2 2.98 2 4.96 2 7 C2.66 7 3.32 7 4 7 C6 9 6 9 6.1953125 12.6953125 C6.182009 14.17200108 6.15814835 15.64862358 6.125 17.125 C6.11597656 17.87910156 6.10695313 18.63320312 6.09765625 19.41015625 C6.0740687 21.27357254 6.03819719 23.13682593 6 25 C5.67 25 5.34 25 5 25 C4.34 21.04 3.68 17.08 3 13 C2.01 12.67 1.02 12.34 0 12 C-1.47481032 8.5140847 -1.14039067 4.72035279 -1 1 C-0.67 0.67 -0.34 0.34 0 0 Z M0 2 C0 3.98 0 5.96 0 8 C0.33 8 0.66 8 1 8 C1 6.02 1 4.04 1 2 C0.67 2 0.34 2 0 2 Z " fill="#643707" transform="translate(68,187)"/>
<path d="M0 0 C8.25 0 16.5 0 25 0 C24.67 1.32 24.34 2.64 24 4 C15.86894139 3.50877547 7.98079085 2.64733759 0 1 C0 0.67 0 0.34 0 0 Z " fill="#0B4C6A" transform="translate(118,175)"/>
<path d="M0 0 C0.33 0 0.66 0 1 0 C1 15.84 1 31.68 1 48 C0.67 48 0.34 48 0 48 C0 32.16 0 16.32 0 0 Z " fill="#000000" transform="translate(227,252)"/>
<path d="M0 0 C0.33 0 0.66 0 1 0 C1 14.85 1 29.7 1 45 C-1.08184316 41.87723527 -1.24083127 41.31968122 -1.13525391 37.80395508 C-1.11508209 36.96331009 -1.09491028 36.1226651 -1.0741272 35.25654602 C-1.04193085 34.35333115 -1.0097345 33.45011627 -0.9765625 32.51953125 C-0.95153656 31.59154221 -0.92651062 30.66355316 -0.90072632 29.70744324 C-0.8185231 26.74209076 -0.72193463 23.77740396 -0.625 20.8125 C-0.56676078 18.80276161 -0.50945749 16.79299586 -0.453125 14.78320312 C-0.3129437 9.85508555 -0.15985918 4.92751693 0 0 Z " fill="#000000" transform="translate(360,252)"/>
<path d="M0 0 C0.33 0 0.66 0 1 0 C1.33 14.52 1.66 29.04 2 44 C1.01 44.495 1.01 44.495 0 45 C0 30.15 0 15.3 0 0 Z " fill="#000000" transform="translate(166,220)"/>
<path d="M0 0 C0 0.66 0 1.32 0 2 C-3.96 3.65 -7.92 5.3 -12 7 C-12 6.34 -12 5.68 -12 5 C-12.66 4.67 -13.32 4.34 -14 4 C-9.22642128 1.28608722 -5.65611463 -0.56561146 0 0 Z " fill="#A25B0C" transform="translate(106,209)"/>
<path d="M0 0 C0.33 0 0.66 0 1 0 C1 11.55 1 23.1 1 35 C0.67 35 0.34 35 0 35 C0 23.45 0 11.9 0 0 Z " fill="#000000" transform="translate(236,283)"/>
<path d="M0 0 C0.33 0.66 0.66 1.32 1 2 C0.67 2.66 0.34 3.32 0 4 C0.66 4.33 1.32 4.66 2 5 C1.01 5 0.02 5 -1 5 C-1.78375 5.02320313 -2.5675 5.04640625 -3.375 5.0703125 C-4.24125 5.08835938 -5.1075 5.10640625 -6 5.125 C-7.299375 5.15980469 -7.299375 5.15980469 -8.625 5.1953125 C-11 5 -11 5 -14 3 C-12.60974609 2.80083984 -12.60974609 2.80083984 -11.19140625 2.59765625 C-9.99386719 2.42105469 -8.79632813 2.24445313 -7.5625 2.0625 C-6.36753906 1.88847656 -5.17257813 1.71445313 -3.94140625 1.53515625 C-1.12044324 1.31014787 -1.12044324 1.31014787 0 0 Z " fill="#462605" transform="translate(117,205)"/>
<path d="M0 0 C6.6 0.33 13.2 0.66 20 1 C20 1.33 20 1.66 20 2 C14.39 2 8.78 2 3 2 C2.67 4.64 2.34 7.28 2 10 C1.67 10 1.34 10 1 10 C0.67 6.7 0.34 3.4 0 0 Z " fill="#060300" transform="translate(74,190)"/>
<path d="M0 0 C0.66 0.66 1.32 1.32 2 2 C-2.35568513 4.05685131 -2.35568513 4.05685131 -5.125 3.8125 C-7.27071167 2.88269161 -8.47490524 1.75385898 -10 0 C-6.31938873 -0.9464429 -3.66134991 -1.08850943 0 0 Z " fill="#CE6A00" transform="translate(431,328)"/>
<path d="M0 0 C10.56 0 21.12 0 32 0 C32 0.33 32 0.66 32 1 C21.44 1 10.88 1 0 1 C0 0.67 0 0.34 0 0 Z " fill="#000000" transform="translate(284,313)"/>
<path d="M0 0 C1.98 0 3.96 0 6 0 C6.88336837 2.4667645 7.1312406 3.63859372 6.22265625 6.140625 C5.83980469 6.83671875 5.45695312 7.5328125 5.0625 8.25 C4.68222656 8.95640625 4.30195313 9.6628125 3.91015625 10.390625 C3.60980469 10.92171875 3.30945313 11.4528125 3 12 C2.34 11.01 1.68 10.02 1 9 C1.66 8.01 2.32 7.02 3 6 C2.64111965 3.03923709 2.15341979 2.15341979 0 0 Z M5 2 C6 4 6 4 6 4 Z " fill="#073248" transform="translate(444,253)"/>
<path d="M0 0 C13.365 0.495 13.365 0.495 27 1 C27 1.33 27 1.66 27 2 C17.76 2 8.52 2 -1 2 C-0.67 1.34 -0.34 0.68 0 0 Z " fill="#000000" transform="translate(106,183)"/>
<path d="M0 0 C2.475 0.495 2.475 0.495 5 1 C4.46930939 4.82097239 3.50298434 7.06171403 1 10 C0.37542727 6.56484998 0 3.50935186 0 0 Z " fill="#093F57" transform="translate(402,252)"/>
<path d="M0 0 C0.66 0.99 1.32 1.98 2 3 C1.236875 3.45375 0.47375 3.9075 -0.3125 4.375 C-2.23632814 5.53824492 -4.12941224 6.7529415 -6 8 C-6.99 8 -7.98 8 -9 8 C-9 7.34 -9 6.68 -9 6 C-7.03125 4.4921875 -7.03125 4.4921875 -4.5 2.875 C-3.6646875 2.33617187 -2.829375 1.79734375 -1.96875 1.2421875 C-1.3190625 0.83226562 -0.669375 0.42234375 0 0 Z " fill="#904B00" transform="translate(449,316)"/>
<path d="M0 0 C0.66 0 1.32 0 2 0 C3.625 2.5 3.625 2.5 5 5 C4.01 5.495 4.01 5.495 3 6 C2.53101037 8.8159849 2.53101037 8.8159849 2.375 12.0625 C2.30023438 13.16722656 2.22546875 14.27195312 2.1484375 15.41015625 C2.09945312 16.26480469 2.05046875 17.11945313 2 18 C1.67 18 1.34 18 1 18 C0.67 12.06 0.34 6.12 0 0 Z " fill="#000408" transform="translate(165,282)"/>
<path d="M0 0 C0.33 0 0.66 0 1 0 C1 8.91 1 17.82 1 27 C0.67 27 0.34 27 0 27 C0 18.09 0 9.18 0 0 Z " fill="#000000" transform="translate(381,274)"/>
<path d="M0 0 C0.66 0.66 1.32 1.32 2 2 C1.54625 2.5775 1.0925 3.155 0.625 3.75 C-0.84113516 5.7800333 -1.94857784 7.73539843 -3 10 C-3.66 10 -4.32 10 -5 10 C-5.33 10.66 -5.66 11.32 -6 12 C-7 9 -7 9 -6 6 C-4.35360035 4.64172029 -2.68704193 3.30745749 -1 2 C-0.67 1.34 -0.34 0.68 0 0 Z " fill="#000203" transform="translate(94,225)"/>
<path d="M0 0 C2.00720923 0.28674418 4.0085944 0.61866701 6 1 C5.34 2.98 4.68 4.96 4 7 C2.68 6.67 1.36 6.34 0 6 C-0.38218767 4.34385343 -0.71395102 2.67542976 -1 1 C-0.67 0.67 -0.34 0.34 0 0 Z " fill="#18495C" transform="translate(242,328)"/>
<path d="M0 0 C-0.33 0.66 -0.66 1.32 -1 2 C-5.95 2 -10.9 2 -16 2 C-16 1.67 -16 1.34 -16 1 C-10.63904667 -0.12862175 -5.44693314 -0.09688221 0 0 Z " fill="#000000" transform="translate(124,218)"/>
<path d="M0 0 C0.66 0.33 1.32 0.66 2 1 C1.67 1.33 1.34 1.66 1 2 C1.66 2.66 2.32 3.32 3 4 C-1.455 4.495 -1.455 4.495 -6 5 C-3.375 1.125 -3.375 1.125 0 0 Z " fill="#FA8600" transform="translate(277,317)"/>
<path d="M0 0 C7.59 0 15.18 0 23 0 C23 0.33 23 0.66 23 1 C15.41 1 7.82 1 0 1 C0 0.67 0 0.34 0 0 Z " fill="#000000" transform="translate(94,190)"/>
<path d="M0 0 C7.26 0 14.52 0 22 0 C22 0.33 22 0.66 22 1 C14.74 1 7.48 1 0 1 C0 0.67 0 0.34 0 0 Z " fill="#000000" transform="translate(183,302)"/>
<path d="M0 0 C7.26 0 14.52 0 22 0 C22 0.33 22 0.66 22 1 C14.74 1 7.48 1 0 1 C0 0.67 0 0.34 0 0 Z " fill="#000000" transform="translate(181,249)"/>
<path d="M0 0 C0.99 0 1.98 0 3 0 C1.71480435 2.86697492 0.42870746 4.97607712 -2 7 C-2.66 7 -3.32 7 -4 7 C-2.92598892 4.08482708 -2.22189824 2.22189824 0 0 Z " fill="#106389" transform="translate(104,180)"/>
<path d="M0 0 C1.32 0.33 2.64 0.66 4 1 C4 1.99 4 2.98 4 4 C1.69 4 -0.62 4 -3 4 C-2.01 2.68 -1.02 1.36 0 0 Z " fill="#F48100" transform="translate(421,329)"/>
<path d="M0 0 C1.32 0 2.64 0 4 0 C4 0.99 4 1.98 4 3 C2.35 3.66 0.7 4.32 -1 5 C-1 1 -1 1 0 0 Z " fill="#B9670F" transform="translate(90,214)"/>
<path d="M0 0 C6.6 0 13.2 0 20 0 C20 0.33 20 0.66 20 1 C13.4 1 6.8 1 0 1 C0 0.67 0 0.34 0 0 Z " fill="#000000" transform="translate(281,302)"/>
<path d="M0 0 C0 0.66 0 1.32 0 2 C-2.31 2.66 -4.62 3.32 -7 4 C-7.66 3.01 -8.32 2.02 -9 1 C-5.8035914 -0.06546953 -3.34252724 -0.07427838 0 0 Z " fill="#90510B" transform="translate(106,209)"/>
<path d="M0 0 C6.27 0 12.54 0 19 0 C19 0.33 19 0.66 19 1 C12.73 1 6.46 1 0 1 C0 0.67 0 0.34 0 0 Z " fill="#000000" transform="translate(393,328)"/>
<path d="M0 0 C-2.475 1.485 -2.475 1.485 -5 3 C-4.34 3.66 -3.68 4.32 -3 5 C-4.65 4.67 -6.3 4.34 -8 4 C-7.6875 2.0625 -7.6875 2.0625 -7 0 C-3.86650268 -1.04449911 -3.01031744 -0.93423645 0 0 Z " fill="#BA6100" transform="translate(277,318)"/>
<path d="M0 0 C6.27 0 12.54 0 19 0 C19 0.33 19 0.66 19 1 C12.73 1 6.46 1 0 1 C0 0.67 0 0.34 0 0 Z " fill="#000000" transform="translate(341,302)"/>
<path d="M0 0 C0.99 0 1.98 0 3 0 C1.63016497 3.16115776 1.0109362 3.9927092 -2 6 C-2 2 -2 2 0 0 Z " fill="#C16B0F" transform="translate(91,224)"/>
<path d="M0 0 C2.31 0 4.62 0 7 0 C6.01 0.33 5.02 0.66 4 1 C4 2.32 4 3.64 4 5 C2.68 4.67 1.36 4.34 0 4 C0 2.68 0 1.36 0 0 Z M1 1 C2 3 2 3 2 3 Z " fill="#9E5400" transform="translate(237,214)"/>
<path d="M0 0 C5.94 0 11.88 0 18 0 C18 0.33 18 0.66 18 1 C12.06 1 6.12 1 0 1 C0 0.67 0 0.34 0 0 Z " fill="#000000" transform="translate(312,220)"/>
<path d="M0 0 C2.64 0 5.28 0 8 0 C5.64031256 2.09749995 4.45383006 2.96905704 1.25 3.1875 C0.13625 3.0946875 0.13625 3.0946875 -1 3 C-0.67 2.01 -0.34 1.02 0 0 Z " fill="#BD6A0F" transform="translate(104,216)"/>
<path d="M0 0 C5.94 0 11.88 0 18 0 C18 0.33 18 0.66 18 1 C12.06 1 6.12 1 0 1 C0 0.67 0 0.34 0 0 Z " fill="#000000" transform="translate(113,173)"/>
<path d="M0 0 C5.61 0 11.22 0 17 0 C17 0.33 17 0.66 17 1 C11.39 1 5.78 1 0 1 C0 0.67 0 0.34 0 0 Z " fill="#000000" transform="translate(363,302)"/>
<path d="M0 0 C5.61 0 11.22 0 17 0 C17 0.33 17 0.66 17 1 C11.39 1 5.78 1 0 1 C0 0.67 0 0.34 0 0 Z " fill="#000000" transform="translate(262,302)"/>
<path d="M0 0 C5.61 0 11.22 0 17 0 C17 0.33 17 0.66 17 1 C11.39 1 5.78 1 0 1 C0 0.67 0 0.34 0 0 Z " fill="#000000" transform="translate(208,302)"/>
<path d="M0 0 C5.61 0 11.22 0 17 0 C17 0.33 17 0.66 17 1 C11.39 1 5.78 1 0 1 C0 0.67 0 0.34 0 0 Z " fill="#000000" transform="translate(148,302)"/>
<path d="M0 0 C5.61 0 11.22 0 17 0 C17 0.33 17 0.66 17 1 C11.39 1 5.78 1 0 1 C0 0.67 0 0.34 0 0 Z " fill="#000000" transform="translate(363,249)"/>
<path d="M0 0 C5.61 0 11.22 0 17 0 C17 0.33 17 0.66 17 1 C11.39 1 5.78 1 0 1 C0 0.67 0 0.34 0 0 Z " fill="#000000" transform="translate(262,217)"/>
<path d="M0 0 C5.61 0 11.22 0 17 0 C17 0.33 17 0.66 17 1 C11.39 1 5.78 1 0 1 C0 0.67 0 0.34 0 0 Z " fill="#000000" transform="translate(148,217)"/>
<path d="M0 0 C5.28 0 10.56 0 16 0 C16 0.33 16 0.66 16 1 C10.72 1 5.44 1 0 1 C0 0.67 0 0.34 0 0 Z " fill="#000000" transform="translate(103,303)"/>
<path d="M0 0 C5.28 0 10.56 0 16 0 C16 0.33 16 0.66 16 1 C10.72 1 5.44 1 0 1 C0 0.67 0 0.34 0 0 Z " fill="#000000" transform="translate(209,249)"/>
<path d="M0 0 C4.62 0 9.24 0 14 0 C14 0.33 14 0.66 14 1 C9.38 1 4.76 1 0 1 C0 0.67 0 0.34 0 0 Z " fill="#000000" transform="translate(285,322)"/>
<path d="M0 0 C4.62 0 9.24 0 14 0 C14 0.33 14 0.66 14 1 C9.38 1 4.76 1 0 1 C0 0.67 0 0.34 0 0 Z " fill="#000000" transform="translate(128,179)"/>
<path d="M0 0 C4.29 0 8.58 0 13 0 C13 0.33 13 0.66 13 1 C8.71 1 4.42 1 0 1 C0 0.67 0 0.34 0 0 Z " fill="#000000" transform="translate(377,337)"/>
<path d="M0 0 C0.33 0 0.66 0 1 0 C1 4.29 1 8.58 1 13 C0.67 13 0.34 13 0 13 C0 8.71 0 4.42 0 0 Z " fill="#000000" transform="translate(404,270)"/>
<path d="M0 0 C3.96 0 7.92 0 12 0 C12 0.33 12 0.66 12 1 C8.04 1 4.08 1 0 1 C0 0.67 0 0.34 0 0 Z " fill="#000000" transform="translate(299,323)"/>
<path d="M0 0 C3.96 0 7.92 0 12 0 C12 0.33 12 0.66 12 1 C8.04 1 4.08 1 0 1 C0 0.67 0 0.34 0 0 Z " fill="#000000" transform="translate(427,303)"/>
<path d="M0 0 C3.96 0 7.92 0 12 0 C12 0.33 12 0.66 12 1 C8.04 1 4.08 1 0 1 C0 0.67 0 0.34 0 0 Z " fill="#000000" transform="translate(427,248)"/>
<path d="M0 0 C3.96 0 7.92 0 12 0 C12 0.33 12 0.66 12 1 C8.04 1 4.08 1 0 1 C0 0.67 0 0.34 0 0 Z " fill="#000000" transform="translate(116,178)"/>
<path d="M0 0 C3.63 0 7.26 0 11 0 C11 0.33 11 0.66 11 1 C7.37 1 3.74 1 0 1 C0 0.67 0 0.34 0 0 Z " fill="#000000" transform="translate(400,337)"/>
<path d="M0 0 C3.3 0 6.6 0 10 0 C10 0.33 10 0.66 10 1 C6.7 1 3.4 1 0 1 C0 0.67 0 0.34 0 0 Z " fill="#000000" transform="translate(383,327)"/>
<path d="M0 0 C2.97 0 5.94 0 9 0 C9 0.33 9 0.66 9 1 C6.03 1 3.06 1 0 1 C0 0.67 0 0.34 0 0 Z " fill="#000000" transform="translate(275,323)"/>
<path d="M0 0 C2.97 0 5.94 0 9 0 C9 0.33 9 0.66 9 1 C6.03 1 3.06 1 0 1 C0 0.67 0 0.34 0 0 Z " fill="#000000" transform="translate(431,285)"/>
<path d="M0 0 C2.97 0 5.94 0 9 0 C9 0.33 9 0.66 9 1 C6.03 1 3.06 1 0 1 C0 0.67 0 0.34 0 0 Z " fill="#000000" transform="translate(386,267)"/>
<path d="M0 0 C2.97 0 5.94 0 9 0 C9 0.33 9 0.66 9 1 C6.03 1 3.06 1 0 1 C0 0.67 0 0.34 0 0 Z " fill="#000000" transform="translate(240,211)"/>
<path d="M0 0 C2.97 0 5.94 0 9 0 C9 0.33 9 0.66 9 1 C6.03 1 3.06 1 0 1 C0 0.67 0 0.34 0 0 Z " fill="#000000" transform="translate(133,174)"/>
<path d="M0 0 C2.64 0 5.28 0 8 0 C8 0.33 8 0.66 8 1 C5.36 1 2.72 1 0 1 C0 0.67 0 0.34 0 0 Z " fill="#000000" transform="translate(316,314)"/>
<path d="M0 0 C2.64 0 5.28 0 8 0 C8 0.33 8 0.66 8 1 C5.36 1 2.72 1 0 1 C0 0.67 0 0.34 0 0 Z " fill="#000000" transform="translate(432,266)"/>
<path d="M0 0 C2.64 0 5.28 0 8 0 C8 0.33 8 0.66 8 1 C5.36 1 2.72 1 0 1 C0 0.67 0 0.34 0 0 Z " fill="#000000" transform="translate(391,248)"/>
<path d="M0 0 C2.64 0 5.28 0 8 0 C8 0.33 8 0.66 8 1 C5.36 1 2.72 1 0 1 C0 0.67 0 0.34 0 0 Z " fill="#000000" transform="translate(111,239)"/>
<path d="M0 0 C0.33 0 0.66 0 1 0 C1 2.64 1 5.28 1 8 C0.67 8 0.34 8 0 8 C0 5.36 0 2.72 0 0 Z " fill="#000000" transform="translate(205,228)"/>
<path d="M0 0 C2.64 0 5.28 0 8 0 C8 0.33 8 0.66 8 1 C5.36 1 2.72 1 0 1 C0 0.67 0 0.34 0 0 Z " fill="#000000" transform="translate(213,220)"/>
<path d="M0 0 C2.64 0 5.28 0 8 0 C8 0.33 8 0.66 8 1 C5.36 1 2.72 1 0 1 C0 0.67 0 0.34 0 0 Z " fill="#000000" transform="translate(107,205)"/>
<path d="M0 0 C2.31 0 4.62 0 7 0 C7 0.33 7 0.66 7 1 C4.69 1 2.38 1 0 1 C0 0.67 0 0.34 0 0 Z " fill="#000000" transform="translate(411,336)"/>
<path d="M0 0 C2.31 0 4.62 0 7 0 C7 0.33 7 0.66 7 1 C4.69 1 2.38 1 0 1 C0 0.67 0 0.34 0 0 Z " fill="#000000" transform="translate(413,327)"/>
<path d="M0 0 C2.31 0 4.62 0 7 0 C7 0.33 7 0.66 7 1 C4.69 1 2.38 1 0 1 C0 0.67 0 0.34 0 0 Z " fill="#000000" transform="translate(376,326)"/>
<path d="M0 0 C2.31 0 4.62 0 7 0 C7 0.33 7 0.66 7 1 C4.69 1 2.38 1 0 1 C0 0.67 0 0.34 0 0 Z " fill="#000000" transform="translate(311,324)"/>
<path d="M0 0 C0 0.99 0 1.98 0 3 C-0.99 3 -1.98 3 -3 3 C-2.01 2.01 -1.02 1.02 0 0 Z " fill="#000000" transform="translate(226,238)"/>
<path d="M0 0 C2.31 0 4.62 0 7 0 C7 0.33 7 0.66 7 1 C4.69 1 2.38 1 0 1 C0 0.67 0 0.34 0 0 Z " fill="#000000" transform="translate(69,231)"/>
<path d="M0 0 C2.31 0 4.62 0 7 0 C7 0.33 7 0.66 7 1 C4.69 1 2.38 1 0 1 C0 0.67 0 0.34 0 0 Z " fill="#000000" transform="translate(75,220)"/>
<path d="M0 0 C0.33 0 0.66 0 1 0 C1 2.31 1 4.62 1 7 C0.67 7 0.34 7 0 7 C0 4.69 0 2.38 0 0 Z " fill="#000000" transform="translate(72,213)"/>
<path d="M0 0 C1.98 0 3.96 0 6 0 C6 0.33 6 0.66 6 1 C4.02 1 2.04 1 0 1 C0 0.67 0 0.34 0 0 Z " fill="#000000" transform="translate(371,336)"/>
<path d="M0 0 C1.98 0 3.96 0 6 0 C6 0.33 6 0.66 6 1 C4.02 1 2.04 1 0 1 C0 0.67 0 0.34 0 0 Z " fill="#000000" transform="translate(364,335)"/>
<path d="M0 0 C1.98 0 3.96 0 6 0 C6 0.33 6 0.66 6 1 C4.02 1 2.04 1 0 1 C0 0.67 0 0.34 0 0 Z " fill="#000000" transform="translate(420,326)"/>
<path d="M0 0 C1.98 0 3.96 0 6 0 C6 0.33 6 0.66 6 1 C4.02 1 2.04 1 0 1 C0 0.67 0 0.34 0 0 Z " fill="#000000" transform="translate(370,325)"/>
<path d="M0 0 C1.98 0 3.96 0 6 0 C6 0.33 6 0.66 6 1 C4.02 1 2.04 1 0 1 C0 0.67 0 0.34 0 0 Z " fill="#000000" transform="translate(318,325)"/>
<path d="M0 0 C1.98 0 3.96 0 6 0 C6 0.33 6 0.66 6 1 C4.02 1 2.04 1 0 1 C0 0.67 0 0.34 0 0 Z " fill="#000000" transform="translate(324,315)"/>
<path d="M0 0 C1.98 0 3.96 0 6 0 C6 0.33 6 0.66 6 1 C4.02 1 2.04 1 0 1 C0 0.67 0 0.34 0 0 Z " fill="#000000" transform="translate(278,314)"/>
<path d="M0 0 C1.98 0 3.96 0 6 0 C6 0.33 6 0.66 6 1 C4.02 1 2.04 1 0 1 C0 0.67 0 0.34 0 0 Z " fill="#000000" transform="translate(110,282)"/>
<path d="M0 0 C0.33 0 0.66 0 1 0 C1 1.98 1 3.96 1 6 C0.67 6 0.34 6 0 6 C0 4.02 0 2.04 0 0 Z " fill="#000000" transform="translate(142,274)"/>
<path d="M0 0 C1.98 0 3.96 0 6 0 C6 0.33 6 0.66 6 1 C4.02 1 2.04 1 0 1 C0 0.67 0 0.34 0 0 Z " fill="#000000" transform="translate(63,232)"/>
<path d="M0 0 C0.33 0 0.66 0 1 0 C1 1.98 1 3.96 1 6 C0.67 6 0.34 6 0 6 C0 4.02 0 2.04 0 0 Z " fill="#000000" transform="translate(65,200)"/>
<path d="M0 0 C1.65 0 3.3 0 5 0 C5 0.33 5 0.66 5 1 C3.35 1 1.7 1 0 1 C0 0.67 0 0.34 0 0 Z " fill="#000000" transform="translate(359,334)"/>
<path d="M0 0 C1.65 0 3.3 0 5 0 C5 0.33 5 0.66 5 1 C3.35 1 1.7 1 0 1 C0 0.67 0 0.34 0 0 Z " fill="#000000" transform="translate(329,327)"/>
<path d="M0 0 C1.65 0 3.3 0 5 0 C5 0.33 5 0.66 5 1 C3.35 1 1.7 1 0 1 C0 0.67 0 0.34 0 0 Z " fill="#000000" transform="translate(324,326)"/>
<path d="M0 0 C1.65 0 3.3 0 5 0 C5 0.33 5 0.66 5 1 C3.35 1 1.7 1 0 1 C0 0.67 0 0.34 0 0 Z " fill="#000000" transform="translate(365,324)"/>
<path d="M0 0 C1.65 0 3.3 0 5 0 C5 0.33 5 0.66 5 1 C3.35 1 1.7 1 0 1 C0 0.67 0 0.34 0 0 Z " fill="#000000" transform="translate(270,324)"/>
<path d="M0 0 C1.65 0 3.3 0 5 0 C5 0.33 5 0.66 5 1 C3.35 1 1.7 1 0 1 C0 0.67 0 0.34 0 0 Z " fill="#000000" transform="translate(360,323)"/>
<path d="M0 0 C1.65 0 3.3 0 5 0 C5 0.33 5 0.66 5 1 C3.35 1 1.7 1 0 1 C0 0.67 0 0.34 0 0 Z " fill="#000000" transform="translate(335,317)"/>
<path d="M0 0 C1.65 0 3.3 0 5 0 C5 0.33 5 0.66 5 1 C3.35 1 1.7 1 0 1 C0 0.67 0 0.34 0 0 Z " fill="#000000" transform="translate(330,316)"/>
<path d="M0 0 C1.65 0 3.3 0 5 0 C5 0.33 5 0.66 5 1 C3.35 1 1.7 1 0 1 C0 0.67 0 0.34 0 0 Z " fill="#000000" transform="translate(273,315)"/>
<path d="M0 0 C1.65 0 3.3 0 5 0 C5 0.33 5 0.66 5 1 C3.35 1 1.7 1 0 1 C0 0.67 0 0.34 0 0 Z " fill="#000000" transform="translate(104,282)"/>
<path d="M0 0 C0.33 0 0.66 0 1 0 C1 1.65 1 3.3 1 5 C0.67 5 0.34 5 0 5 C0 3.35 0 1.7 0 0 Z " fill="#000000" transform="translate(141,280)"/>
<path d="M0 0 C0.33 0 0.66 0 1 0 C1 1.65 1 3.3 1 5 C0.67 5 0.34 5 0 5 C0 3.35 0 1.7 0 0 Z " fill="#000000" transform="translate(61,223)"/>
<path d="M0 0 C0.66 0.33 1.32 0.66 2 1 C0.68 1.33 -0.64 1.66 -2 2 C-1.34 1.34 -0.68 0.68 0 0 Z " fill="#000000" transform="translate(125,219)"/>
<path d="M0 0 C1.65 0 3.3 0 5 0 C5 0.33 5 0.66 5 1 C3.35 1 1.7 1 0 1 C0 0.67 0 0.34 0 0 Z " fill="#000000" transform="translate(108,213)"/>
<path d="M0 0 C1.65 0 3.3 0 5 0 C5 0.33 5 0.66 5 1 C3.35 1 1.7 1 0 1 C0 0.67 0 0.34 0 0 Z " fill="#000000" transform="translate(110,210)"/>
<path d="M0 0 C0.33 0 0.66 0 1 0 C1 1.65 1 3.3 1 5 C0.67 5 0.34 5 0 5 C0 3.35 0 1.7 0 0 Z " fill="#000000" transform="translate(74,201)"/>
<path d="M0 0 C1.65 0 3.3 0 5 0 C5 0.33 5 0.66 5 1 C3.35 1 1.7 1 0 1 C0 0.67 0 0.34 0 0 Z " fill="#000000" transform="translate(153,183)"/>
<path d="M0 0 C4 1 4 1 4 1 Z " fill="#000000" transform="translate(418,335)"/>
<path d="M0 0 C4 1 4 1 4 1 Z " fill="#000000" transform="translate(355,333)"/>
<path d="M0 0 C4 1 4 1 4 1 Z " fill="#000000" transform="translate(350,332)"/>
<path d="M0 0 C4 1 4 1 4 1 Z " fill="#000000" transform="translate(342,330)"/>
<path d="M0 0 C4 1 4 1 4 1 Z " fill="#000000" transform="translate(334,328)"/>
<path d="M0 0 C4 1 4 1 4 1 Z " fill="#000000" transform="translate(426,325)"/>
<path d="M0 0 C0.66 0.33 1.32 0.66 2 1 C1.01 1 0.02 1 -1 1 C-0.67 0.67 -0.34 0.34 0 0 Z " fill="#000000" transform="translate(443,324)"/>
<path d="M0 0 C4 1 4 1 4 1 Z " fill="#000000" transform="translate(356,322)"/>
<path d="M0 0 C4 1 4 1 4 1 Z " fill="#000000" transform="translate(352,321)"/>
<path d="M0 0 C4 1 4 1 4 1 Z " fill="#000000" transform="translate(348,320)"/>
<path d="M0 0 C4 1 4 1 4 1 Z " fill="#000000" transform="translate(344,319)"/>
<path d="M0 0 C4 1 4 1 4 1 Z " fill="#000000" transform="translate(340,318)"/>
<path d="M0 0 C4 1 4 1 4 1 Z " fill="#000000" transform="translate(439,302)"/>
<path d="M0 0 C4 1 4 1 4 1 Z " fill="#000000" transform="translate(119,302)"/>
<path d="M0 0 C4 1 4 1 4 1 Z " fill="#000000" transform="translate(99,302)"/>
<path d="M0 0 C0.66 0.66 1.32 1.32 2 2 C1.01 2.495 1.01 2.495 0 3 C0 2.01 0 1.02 0 0 Z " fill="#000000" transform="translate(381,252)"/>
<path d="M0 0 C4 1 4 1 4 1 Z " fill="#000000" transform="translate(439,249)"/>
<path d="M0 0 C4 1 4 1 4 1 Z " fill="#000000" transform="translate(215,244)"/>
<path d="M0 0 C4 1 4 1 4 1 Z " fill="#000000" transform="translate(119,240)"/>
<path d="M0 0 C4 1 4 1 4 1 Z " fill="#000000" transform="translate(104,214)"/>
<path d="M0 0 C4 1 4 1 4 1 Z " fill="#000000" transform="translate(103,206)"/>
<path d="M0 0 C0 3 0 3 0 3 Z " fill="#000000" transform="translate(124,195)"/>
<path d="M0 0 C4 1 4 1 4 1 Z " fill="#000000" transform="translate(158,182)"/>
<path d="M0 0 C4 1 4 1 4 1 Z " fill="#000000" transform="translate(112,179)"/>
<path d="M0 0 C3 1 3 1 3 1 Z " fill="#000000" transform="translate(422,334)"/>
<path d="M0 0 C3 1 3 1 3 1 Z " fill="#000000" transform="translate(347,331)"/>
<path d="M0 0 C3 1 3 1 3 1 Z " fill="#000000" transform="translate(433,330)"/>
<path d="M0 0 C3 1 3 1 3 1 Z " fill="#000000" transform="translate(339,329)"/>
<path d="M0 0 C3 1 3 1 3 1 Z " fill="#000000" transform="translate(259,327)"/>
<path d="M0 0 C3 1 3 1 3 1 Z " fill="#000000" transform="translate(262,326)"/>
<path d="M0 0 C3 1 3 1 3 1 Z " fill="#000000" transform="translate(266,325)"/>
<path d="" fill="#000000" transform="translate(0,0)"/>
<path d="M0 0 C3 1 3 1 3 1 Z " fill="#000000" transform="translate(430,324)"/>
<path d="M0 0 C3 1 3 1 3 1 Z " fill="#000000" transform="translate(433,323)"/>
<path d="" fill="#000000" transform="translate(0,0)"/>
<path d="M0 0 C3 1 3 1 3 1 Z " fill="#000000" transform="translate(267,317)"/>
<path d="" fill="#000000" transform="translate(0,0)"/>
<path d="M0 0 C3 1 3 1 3 1 Z " fill="#000000" transform="translate(270,316)"/>
<path d="M0 0 C3 1 3 1 3 1 Z " fill="#000000" transform="translate(424,302)"/>
<path d="M0 0 C3 1 3 1 3 1 Z " fill="#000000" transform="translate(443,301)"/>
<path d="M0 0 C3 1 3 1 3 1 Z " fill="#000000" transform="translate(421,301)"/>
<path d="M0 0 C3 1 3 1 3 1 Z " fill="#000000" transform="translate(123,301)"/>
<path d="M0 0 C3 1 3 1 3 1 Z " fill="#000000" transform="translate(95,301)"/>
<path d="" fill="#000000" transform="translate(0,0)"/>
<path d="" fill="#000000" transform="translate(0,0)"/>
<path d="" fill="#000000" transform="translate(0,0)"/>
<path d="" fill="#000000" transform="translate(0,0)"/>
<path d="" fill="#000000" transform="translate(0,0)"/>
<path d="" fill="#000000" transform="translate(0,0)"/>
<path d="" fill="#000000" transform="translate(0,0)"/>
<path d="" fill="#000000" transform="translate(0,0)"/>
<path d="" fill="#000000" transform="translate(0,0)"/>
<path d="" fill="#000000" transform="translate(0,0)"/>
<path d="M0 0 C3 1 3 1 3 1 Z " fill="#000000" transform="translate(443,250)"/>
<path d="M0 0 C3 1 3 1 3 1 Z " fill="#000000" transform="translate(421,250)"/>
<path d="M0 0 C3 1 3 1 3 1 Z " fill="#000000" transform="translate(424,249)"/>
<path d="M0 0 C3 1 3 1 3 1 Z " fill="#000000" transform="translate(399,249)"/>
<path d="M0 0 C3 1 3 1 3 1 Z " fill="#000000" transform="translate(388,249)"/>
<path d="M0 0 C3 1 3 1 3 1 Z " fill="#000000" transform="translate(212,243)"/>
<path d="M0 0 C3 1 3 1 3 1 Z " fill="#000000" transform="translate(123,241)"/>
<path d="" fill="#000000" transform="translate(0,0)"/>
<path d="" fill="#000000" transform="translate(0,0)"/>
<path d="" fill="#000000" transform="translate(0,0)"/>
<path d="" fill="#000000" transform="translate(0,0)"/>
<path d="M0 0 C3 1 3 1 3 1 Z " fill="#000000" transform="translate(127,221)"/>
<path d="M0 0 C3 1 3 1 3 1 Z " fill="#000000" transform="translate(103,212)"/>
<path d="M0 0 C3 1 3 1 3 1 Z " fill="#000000" transform="translate(106,211)"/>
<path d="M0 0 C3 1 3 1 3 1 Z " fill="#000000" transform="translate(97,208)"/>
<path d="M0 0 C3 1 3 1 3 1 Z " fill="#000000" transform="translate(100,207)"/>
<path d="M0 0 C3 1 3 1 3 1 Z " fill="#000000" transform="translate(150,182)"/>
<path d="M0 0 C3 1 3 1 3 1 Z " fill="#000000" transform="translate(144,182)"/>
<path d="M0 0 C3 1 3 1 3 1 Z " fill="#000000" transform="translate(147,181)"/>
<path d="M0 0 C3 1 3 1 3 1 Z " fill="#000000" transform="translate(109,180)"/>
<path d="M0 0 C3 1 3 1 3 1 Z " fill="#000000" transform="translate(144,171)"/>
<path d="" fill="#000000" transform="translate(0,0)"/>
<path d="M0 0 C2 1 2 1 2 1 Z " fill="#000000" transform="translate(395,338)"/>
<path d="M0 0 C2 1 2 1 2 1 Z " fill="#000000" transform="translate(247,334)"/>
<path d="M0 0 C2 1 2 1 2 1 Z " fill="#000000" transform="translate(426,333)"/>
<path d="M0 0 C2 1 2 1 2 1 Z " fill="#000000" transform="translate(429,332)"/>
<path d="M0 0 C2 1 2 1 2 1 Z " fill="#000000" transform="translate(431,331)"/>
<path d="M0 0 C2 1 2 1 2 1 Z " fill="#000000" transform="translate(251,331)"/>
<path d="M0 0 C2 1 2 1 2 1 Z " fill="#000000" transform="translate(253,330)"/>
<path d="M0 0 C2 1 2 1 2 1 Z " fill="#000000" transform="translate(255,329)"/>
<path d="M0 0 C2 1 2 1 2 1 Z " fill="#000000" transform="translate(437,328)"/>
<path d="M0 0 C2 1 2 1 2 1 Z " fill="#000000" transform="translate(257,328)"/>
<path d="" fill="#000000" transform="translate(0,0)"/>
<path d="M0 0 C2 1 2 1 2 1 Z " fill="#000000" transform="translate(439,327)"/>
<path d="M0 0 C2 1 2 1 2 1 Z " fill="#000000" transform="translate(254,323)"/>
<path d="M0 0 C2 1 2 1 2 1 Z " fill="#000000" transform="translate(436,322)"/>
<path d="M0 0 C2 1 2 1 2 1 Z " fill="#000000" transform="translate(256,322)"/>
<path d="M0 0 C2 1 2 1 2 1 Z " fill="#000000" transform="translate(438,321)"/>
<path d="M0 0 C2 1 2 1 2 1 Z " fill="#000000" transform="translate(440,320)"/>
<path d="M0 0 C2 1 2 1 2 1 Z " fill="#000000" transform="translate(260,320)"/>
<path d="M0 0 C2 1 2 1 2 1 Z " fill="#000000" transform="translate(442,319)"/>
<path d="M0 0 C2 1 2 1 2 1 Z " fill="#000000" transform="translate(262,319)"/>
<path d="M0 0 C2 1 2 1 2 1 Z " fill="#000000" transform="translate(264,318)"/>
<path d="M0 0 C2 1 2 1 2 1 Z " fill="#000000" transform="translate(446,300)"/>
<path d="M0 0 C2 1 2 1 2 1 Z " fill="#000000" transform="translate(419,300)"/>
<path d="M0 0 C2 1 2 1 2 1 Z " fill="#000000" transform="translate(126,300)"/>
<path d="M0 0 C2 1 2 1 2 1 Z " fill="#000000" transform="translate(93,300)"/>
<path d="M0 0 C2 1 2 1 2 1 Z " fill="#000000" transform="translate(128,299)"/>
<path d="M0 0 C2 1 2 1 2 1 Z " fill="#000000" transform="translate(91,299)"/>
<path d="M0 0 C2 1 2 1 2 1 Z " fill="#000000" transform="translate(416,298)"/>
<path d="M0 0 C2 1 2 1 2 1 Z " fill="#000000" transform="translate(89,298)"/>
<path d="M0 0 C2 1 2 1 2 1 Z " fill="#000000" transform="translate(131,297)"/>
<path d="M0 0 C2 1 2 1 2 1 Z " fill="#000000" transform="translate(87,297)"/>
<path d="M0 0 C2 1 2 1 2 1 Z " fill="#000000" transform="translate(85,296)"/>
<path d="" fill="#000000" transform="translate(0,0)"/>
<path d="" fill="#000000" transform="translate(0,0)"/>
<path d="" fill="#000000" transform="translate(0,0)"/>
<path d="M0 0 C2 1 2 1 2 1 Z " fill="#000000" transform="translate(440,284)"/>
<path d="M0 0 C2 1 2 1 2 1 Z " fill="#000000" transform="translate(442,283)"/>
<path d="M0 0 C2 1 2 1 2 1 Z " fill="#000000" transform="translate(102,281)"/>
<path d="M0 0 C2 1 2 1 2 1 Z " fill="#000000" transform="translate(100,280)"/>
<path d="M0 0 C2 1 2 1 2 1 Z " fill="#000000" transform="translate(98,279)"/>
<path d="M0 0 C2 1 2 1 2 1 Z " fill="#000000" transform="translate(96,278)"/>
<path d="M0 0 C2 1 2 1 2 1 Z " fill="#000000" transform="translate(94,277)"/>
<path d="M0 0 C2 1 2 1 2 1 Z " fill="#000000" transform="translate(90,274)"/>
<path d="" fill="#000000" transform="translate(0,0)"/>
<path d="" fill="#000000" transform="translate(0,0)"/>
<path d="" fill="#000000" transform="translate(0,0)"/>
<path d="M0 0 C2 1 2 1 2 1 Z " fill="#000000" transform="translate(112,271)"/>
<path d="M0 0 C2 1 2 1 2 1 Z " fill="#000000" transform="translate(110,270)"/>
<path d="M0 0 C2 1 2 1 2 1 Z " fill="#000000" transform="translate(397,269)"/>
<path d="M0 0 C2 1 2 1 2 1 Z " fill="#000000" transform="translate(108,269)"/>
<path d="M0 0 C2 1 2 1 2 1 Z " fill="#000000" transform="translate(442,268)"/>
<path d="M0 0 C2 1 2 1 2 1 Z " fill="#000000" transform="translate(395,268)"/>
<path d="M0 0 C2 1 2 1 2 1 Z " fill="#000000" transform="translate(384,268)"/>
<path d="" fill="#000000" transform="translate(0,0)"/>
<path d="M0 0 C2 1 2 1 2 1 Z " fill="#000000" transform="translate(106,268)"/>
<path d="M0 0 C2 1 2 1 2 1 Z " fill="#000000" transform="translate(440,267)"/>
<path d="M0 0 C2 1 2 1 2 1 Z " fill="#000000" transform="translate(103,267)"/>
<path d="" fill="#000000" transform="translate(0,0)"/>
<path d="M0 0 C2 1 2 1 2 1 Z " fill="#000000" transform="translate(100,265)"/>
<path d="M0 0 C2 1 2 1 2 1 Z " fill="#000000" transform="translate(98,264)"/>
<path d="" fill="#000000" transform="translate(0,0)"/>
<path d="M0 0 C2 1 2 1 2 1 Z " fill="#000000" transform="translate(130,258)"/>
<path d="" fill="#000000" transform="translate(0,0)"/>
<path d="" fill="#000000" transform="translate(0,0)"/>
<path d="M0 0 C2 1 2 1 2 1 Z " fill="#000000" transform="translate(127,256)"/>
<path d="M0 0 C2 1 2 1 2 1 Z " fill="#000000" transform="translate(124,254)"/>
<path d="M0 0 C2 1 2 1 2 1 Z " fill="#000000" transform="translate(416,253)"/>
<path d="M0 0 C2 1 2 1 2 1 Z " fill="#000000" transform="translate(122,253)"/>
<path d="M0 0 C2 1 2 1 2 1 Z " fill="#000000" transform="translate(119,252)"/>
<path d="M0 0 C2 1 2 1 2 1 Z " fill="#000000" transform="translate(446,251)"/>
<path d="M0 0 C2 1 2 1 2 1 Z " fill="#000000" transform="translate(419,251)"/>
<path d="M0 0 C2 1 2 1 2 1 Z " fill="#000000" transform="translate(384,251)"/>
<path d="M0 0 C2 1 2 1 2 1 Z " fill="#000000" transform="translate(117,251)"/>
<path d="M0 0 C2 1 2 1 2 1 Z " fill="#000000" transform="translate(402,250)"/>
<path d="M0 0 C2 1 2 1 2 1 Z " fill="#000000" transform="translate(386,250)"/>
<path d="M0 0 C2 1 2 1 2 1 Z " fill="#000000" transform="translate(115,250)"/>
<path d="M0 0 C2 1 2 1 2 1 Z " fill="#000000" transform="translate(113,249)"/>
<path d="M0 0 C2 1 2 1 2 1 Z " fill="#000000" transform="translate(111,248)"/>
<path d="" fill="#000000" transform="translate(0,0)"/>
<path d="M0 0 C2 1 2 1 2 1 Z " fill="#000000" transform="translate(129,244)"/>
<path d="M0 0 C2 1 2 1 2 1 Z " fill="#000000" transform="translate(220,243)"/>
<path d="M0 0 C2 1 2 1 2 1 Z " fill="#000000" transform="translate(126,242)"/>
<path d="" fill="#000000" transform="translate(0,0)"/>
<path d="" fill="#000000" transform="translate(0,0)"/>
<path d="M0 0 C2 1 2 1 2 1 Z " fill="#000000" transform="translate(109,240)"/>
<path d="" fill="#000000" transform="translate(0,0)"/>
<path d="" fill="#000000" transform="translate(0,0)"/>
<path d="" fill="#000000" transform="translate(0,0)"/>
<path d="" fill="#000000" transform="translate(0,0)"/>
<path d="" fill="#000000" transform="translate(0,0)"/>
<path d="" fill="#000000" transform="translate(0,0)"/>
<path d="" fill="#000000" transform="translate(0,0)"/>
<path d="" fill="#000000" transform="translate(0,0)"/>
<path d="M0 0 C2 1 2 1 2 1 Z " fill="#000000" transform="translate(134,224)"/>
<path d="M0 0 C2 1 2 1 2 1 Z " fill="#000000" transform="translate(132,223)"/>
<path d="M0 0 C2 1 2 1 2 1 Z " fill="#000000" transform="translate(130,222)"/>
<path d="M0 0 C2 1 2 1 2 1 Z " fill="#000000" transform="translate(221,221)"/>
<path d="M0 0 C2 1 2 1 2 1 Z " fill="#000000" transform="translate(211,221)"/>
<path d="M0 0 C2 1 2 1 2 1 Z " fill="#000000" transform="translate(105,220)"/>
<path d="M0 0 C2 1 2 1 2 1 Z " fill="#000000" transform="translate(93,220)"/>
<path d="M0 0 C2 1 2 1 2 1 Z " fill="#000000" transform="translate(96,218)"/>
<path d="M0 0 C2 1 2 1 2 1 Z " fill="#000000" transform="translate(92,218)"/>
<path d="" fill="#000000" transform="translate(0,0)"/>
<path d="M0 0 C2 1 2 1 2 1 Z " fill="#000000" transform="translate(100,216)"/>
<path d="M0 0 C2 1 2 1 2 1 Z " fill="#000000" transform="translate(95,216)"/>
<path d="M0 0 C2 1 2 1 2 1 Z " fill="#000000" transform="translate(102,215)"/>
<path d="M0 0 C2 1 2 1 2 1 Z " fill="#000000" transform="translate(86,215)"/>
<path d="M0 0 C2 1 2 1 2 1 Z " fill="#000000" transform="translate(99,214)"/>
<path d="M0 0 C2 1 2 1 2 1 Z " fill="#000000" transform="translate(101,213)"/>
<path d="M0 0 C2 1 2 1 2 1 Z " fill="#000000" transform="translate(90,212)"/>
<path d="M0 0 C2 1 2 1 2 1 Z " fill="#000000" transform="translate(93,210)"/>
<path d="M0 0 C2 1 2 1 2 1 Z " fill="#000000" transform="translate(95,209)"/>
<path d="M0 0 C2 1 2 1 2 1 Z " fill="#000000" transform="translate(162,181)"/>
<path d="M0 0 C2 1 2 1 2 1 Z " fill="#000000" transform="translate(106,176)"/>
<path d="M0 0 C2 1 2 1 2 1 Z " fill="#000000" transform="translate(108,175)"/>
<path d="M0 0 C2 1 2 1 2 1 Z " fill="#000000" transform="translate(110,174)"/>
<path d="M0 0 C2 1 2 1 2 1 Z " fill="#000000" transform="translate(156,162)"/>
<path d="" fill="#000000" transform="translate(0,0)"/>
<path d="" fill="#000000" transform="translate(0,0)"/>
<path d="" fill="#000000" transform="translate(0,0)"/>
<path d="" fill="#000000" transform="translate(0,0)"/>
<path d="" fill="#000000" transform="translate(0,0)"/>
<path d="" fill="#000000" transform="translate(0,0)"/>
<path d="" fill="#000000" transform="translate(0,0)"/>
<path d="" fill="#000000" transform="translate(0,0)"/>
<path d="" fill="#000000" transform="translate(0,0)"/>
<path d="" fill="#000000" transform="translate(0,0)"/>
<path d="" fill="#000000" transform="translate(0,0)"/>
<path d="" fill="#000000" transform="translate(0,0)"/>
<path d="" fill="#000000" transform="translate(0,0)"/>
<path d="" fill="#000000" transform="translate(0,0)"/>
<path d="" fill="#000000" transform="translate(0,0)"/>
<path d="" fill="#000000" transform="translate(0,0)"/>
<path d="" fill="#000000" transform="translate(0,0)"/>
<path d="" fill="#000000" transform="translate(0,0)"/>
<path d="" fill="#000000" transform="translate(0,0)"/>
<path d="" fill="#000000" transform="translate(0,0)"/>
<path d="" fill="#000000" transform="translate(0,0)"/>
<path d="" fill="#000000" transform="translate(0,0)"/>
<path d="" fill="#000000" transform="translate(0,0)"/>
<path d="" fill="#000000" transform="translate(0,0)"/>
<path d="" fill="#000000" transform="translate(0,0)"/>
<path d="" fill="#000000" transform="translate(0,0)"/>
<path d="" fill="#000000" transform="translate(0,0)"/>
<path d="" fill="#000000" transform="translate(0,0)"/>
<path d="" fill="#000000" transform="translate(0,0)"/>
<path d="" fill="#000000" transform="translate(0,0)"/>
<path d="" fill="#000000" transform="translate(0,0)"/>
<path d="" fill="#000000" transform="translate(0,0)"/>
<path d="" fill="#000000" transform="translate(0,0)"/>
<path d="" fill="#000000" transform="translate(0,0)"/>
<path d="" fill="#000000" transform="translate(0,0)"/>
<path d="" fill="#000000" transform="translate(0,0)"/>
<path d="" fill="#000000" transform="translate(0,0)"/>
<path d="" fill="#000000" transform="translate(0,0)"/>
<path d="" fill="#000000" transform="translate(0,0)"/>
<path d="" fill="#000000" transform="translate(0,0)"/>
<path d="" fill="#000000" transform="translate(0,0)"/>
<path d="" fill="#000000" transform="translate(0,0)"/>
<path d="" fill="#000000" transform="translate(0,0)"/>
<path d="" fill="#000000" transform="translate(0,0)"/>
<path d="" fill="#000000" transform="translate(0,0)"/>
<path d="" fill="#000000" transform="translate(0,0)"/>
<path d="" fill="#000000" transform="translate(0,0)"/>
<path d="" fill="#000000" transform="translate(0,0)"/>
<path d="" fill="#000000" transform="translate(0,0)"/>
<path d="" fill="#000000" transform="translate(0,0)"/>
<path d="" fill="#000000" transform="translate(0,0)"/>
<path d="" fill="#000000" transform="translate(0,0)"/>
<path d="" fill="#000000" transform="translate(0,0)"/>
<path d="" fill="#000000" transform="translate(0,0)"/>
<path d="" fill="#000000" transform="translate(0,0)"/>
<path d="" fill="#000000" transform="translate(0,0)"/>
<path d="" fill="#000000" transform="translate(0,0)"/>
<path d="" fill="#000000" transform="translate(0,0)"/>
<path d="" fill="#000000" transform="translate(0,0)"/>
<path d="" fill="#000000" transform="translate(0,0)"/>
<path d="" fill="#000000" transform="translate(0,0)"/>
<path d="" fill="#000000" transform="translate(0,0)"/>
<path d="" fill="#000000" transform="translate(0,0)"/>
<path d="" fill="#000000" transform="translate(0,0)"/>
<path d="" fill="#000000" transform="translate(0,0)"/>
<path d="" fill="#000000" transform="translate(0,0)"/>
<path d="" fill="#000000" transform="translate(0,0)"/>
<path d="" fill="#000000" transform="translate(0,0)"/>
<path d="" fill="#000000" transform="translate(0,0)"/>
<path d="" fill="#000000" transform="translate(0,0)"/>
<path d="" fill="#000000" transform="translate(0,0)"/>
<path d="" fill="#000000" transform="translate(0,0)"/>
<path d="" fill="#000000" transform="translate(0,0)"/>
<path d="" fill="#000000" transform="translate(0,0)"/>
<path d="" fill="#000000" transform="translate(0,0)"/>
<path d="" fill="#000000" transform="translate(0,0)"/>
<path d="" fill="#000000" transform="translate(0,0)"/>
<path d="" fill="#000000" transform="translate(0,0)"/>
<path d="" fill="#000000" transform="translate(0,0)"/>
<path d="" fill="#000000" transform="translate(0,0)"/>
<path d="" fill="#000000" transform="translate(0,0)"/>
<path d="" fill="#000000" transform="translate(0,0)"/>
<path d="" fill="#000000" transform="translate(0,0)"/>
<path d="" fill="#000000" transform="translate(0,0)"/>
<path d="" fill="#000000" transform="translate(0,0)"/>
<path d="" fill="#000000" transform="translate(0,0)"/>
<path d="" fill="#000000" transform="translate(0,0)"/>
<path d="" fill="#000000" transform="translate(0,0)"/>
<path d="" fill="#000000" transform="translate(0,0)"/>
<path d="" fill="#000000" transform="translate(0,0)"/>
<path d="" fill="#000000" transform="translate(0,0)"/>
<path d="" fill="#000000" transform="translate(0,0)"/>
<path d="" fill="#000000" transform="translate(0,0)"/>
<path d="" fill="#000000" transform="translate(0,0)"/>
<path d="" fill="#000000" transform="translate(0,0)"/>
<path d="" fill="#000000" transform="translate(0,0)"/>
<path d="" fill="#000000" transform="translate(0,0)"/>
<path d="" fill="#000000" transform="translate(0,0)"/>
<path d="" fill="#000000" transform="translate(0,0)"/>
<path d="" fill="#000000" transform="translate(0,0)"/>
<path d="" fill="#000000" transform="translate(0,0)"/>
<path d="" fill="#000000" transform="translate(0,0)"/>
<path d="" fill="#000000" transform="translate(0,0)"/>
<path d="" fill="#000000" transform="translate(0,0)"/>
<path d="" fill="#000000" transform="translate(0,0)"/>
<path d="" fill="#000000" transform="translate(0,0)"/>
<path d="" fill="#000000" transform="translate(0,0)"/>
<path d="" fill="#000000" transform="translate(0,0)"/>
<path d="" fill="#000000" transform="translate(0,0)"/>
<path d="" fill="#000000" transform="translate(0,0)"/>
<path d="" fill="#000000" transform="translate(0,0)"/>
<path d="" fill="#000000" transform="translate(0,0)"/>
<path d="" fill="#000000" transform="translate(0,0)"/>
<path d="" fill="#000000" transform="translate(0,0)"/>
<path d="" fill="#000000" transform="translate(0,0)"/>
<path d="" fill="#000000" transform="translate(0,0)"/>
<path d="" fill="#000000" transform="translate(0,0)"/>
<path d="" fill="#000000" transform="translate(0,0)"/>
<path d="" fill="#000000" transform="translate(0,0)"/>
<path d="" fill="#000000" transform="translate(0,0)"/>
<path d="" fill="#000000" transform="translate(0,0)"/>
<path d="" fill="#000000" transform="translate(0,0)"/>
<path d="" fill="#000000" transform="translate(0,0)"/>
<path d="" fill="#000000" transform="translate(0,0)"/>
<path d="" fill="#000000" transform="translate(0,0)"/>
<path d="" fill="#000000" transform="translate(0,0)"/>
<path d="" fill="#000000" transform="translate(0,0)"/>
<path d="" fill="#000000" transform="translate(0,0)"/>
<path d="" fill="#000000" transform="translate(0,0)"/>
<path d="" fill="#000000" transform="translate(0,0)"/>
<path d="" fill="#000000" transform="translate(0,0)"/>
<path d="" fill="#000000" transform="translate(0,0)"/>
<path d="" fill="#000000" transform="translate(0,0)"/>
<path d="" fill="#000000" transform="translate(0,0)"/>
<path d="" fill="#000000" transform="translate(0,0)"/>
<path d="" fill="#000000" transform="translate(0,0)"/>
<path d="" fill="#000000" transform="translate(0,0)"/>
<path d="" fill="#000000" transform="translate(0,0)"/>
<path d="" fill="#000000" transform="translate(0,0)"/>
<path d="" fill="#000000" transform="translate(0,0)"/>
<path d="" fill="#000000" transform="translate(0,0)"/>
<path d="" fill="#000000" transform="translate(0,0)"/>
<path d="" fill="#000000" transform="translate(0,0)"/>
<path d="" fill="#000000" transform="translate(0,0)"/>
<path d="" fill="#000000" transform="translate(0,0)"/>
<path d="" fill="#000000" transform="translate(0,0)"/>
<path d="" fill="#000000" transform="translate(0,0)"/>
<path d="" fill="#000000" transform="translate(0,0)"/>
<path d="" fill="#000000" transform="translate(0,0)"/>
</svg>
